<svg xmlns="http://www.w3.org/2000/svg" height="832" preserveAspectRatio="none" style="display: block;" version="1.1" viewBox="0 0 2048 1331" width="1280">
<path d="M 0 0 L 2048 0 L 2048 1331 L 0 1331 L 0 0 z" fill="rgb(11,13,16)" transform="translate(0,0)"></path>
<path d="M 657.511 561.92 C 676.21 561.817 694.909 561.828 713.607 561.955 C 720.703 604.785 726.854 647.372 734.363 690.24 C 737.556 711.478 741.967 748.952 746.834 768.794 L 708.645 768.873 C 706.244 753.554 703.372 738.903 701.332 723.404 C 691.04 723.863 679.866 723.644 669.495 723.628 C 667.049 738.747 664.517 753.852 661.9 768.943 L 584.746 769.007 C 578.174 741.999 571.366 715.048 564.322 688.158 L 549.998 688.295 L 549.884 769.044 L 511.177 769.11 L 511.053 561.967 C 530.967 561.866 551.456 561.521 571.445 562.082 C 585.747 562.484 600.018 568.181 610.038 579.345 C 625.673 596.767 621.456 623.339 621.423 645.254 C 621.398 661.203 610.822 671.732 599.595 681.529 C 605.563 699.547 617.747 741.629 624.889 757.161 C 633.276 693.854 650.325 624.919 657.511 561.92 z" fill="rgb(245,247,250)" transform="translate(0,0)"></path>
<path d="M 549.889 594.102 C 579.694 593.892 584.138 591.787 582.782 625.328 C 582.333 636.406 584.912 643.243 578.826 653.466 C 569.972 659.441 560.865 657.779 549.812 657.751 C 549.862 636.592 549.587 615.238 549.889 594.102 z" fill="rgb(11,13,16)" transform="translate(0,0)"></path>
<path d="M 684.285 616.208 C 685.292 617.609 686.322 618.994 687.374 620.362 C 686.508 628.313 695.606 684.359 697.441 694.952 L 673.609 694.948 L 680.841 645.503 C 682.005 637.456 684.296 623.873 684.285 616.208 z" fill="rgb(11,13,16)" transform="translate(0,0)"></path>
<path d="M 684.285 616.208 C 686.755 608.789 687.079 617.894 687.374 620.362 C 686.322 618.994 685.292 617.609 684.285 616.208 z" fill="rgb(74,73,73)" transform="translate(0,0)"></path>
<path d="M 884.168 561.826 L 921.348 561.802 L 921.519 716.977 C 921.528 723.086 922.176 764.5 921.168 768.127 L 919.166 768.992 L 882.853 769.021 C 867.97 729.919 855.618 688.696 840.587 649.953 L 840.977 768.963 L 803.902 768.971 L 803.997 561.881 L 844.976 561.914 C 853.593 585.937 862 610.034 870.197 634.203 C 873.755 644.544 879.699 663.607 884.18 672.976 L 884.168 561.826 z" fill="rgb(245,247,250)" transform="translate(0,0)"></path>
<path d="M 988.029 561.981 L 1027.1 561.87 C 1037.96 592.872 1054.31 636.056 1062.89 666.71 C 1063.46 668.52 1064.1 669.673 1064.94 671.344 L 1065.87 670.73 L 1066.34 666.463 C 1065.24 633.051 1065.99 595.672 1065.97 561.963 L 1103.89 562.002 C 1103.56 628.35 1105.95 704.201 1103.49 769.356 C 1091.97 769.377 1080.05 769.564 1068.57 769.373 C 1052.97 730.996 1041.34 688.281 1026.12 650.733 C 1024.82 688.398 1025.94 731.094 1025.97 769.142 L 988.166 769.236 L 988.029 561.981 z" fill="rgb(245,247,250)" transform="translate(0,0)"></path>
<path d="M 1537.93 561.988 C 1548.68 561.897 1567.92 562.562 1577.72 561.79 C 1625.56 558.023 1654.12 579.672 1646.2 629.718 C 1644.03 643.394 1637.43 651.502 1625.87 659.315 C 1647.71 671.476 1650.19 684.384 1650.37 708.565 C 1650.51 726.625 1649.5 740.396 1636.06 754.035 C 1619.74 770.598 1599.2 768.84 1577.93 768.843 L 1536.89 768.879 L 1537.11 661.231 C 1542.94 653.204 1550.66 644.333 1557.26 636.967 C 1563.71 636.959 1573.42 635.297 1578.02 640.07 C 1578.15 642.554 1578 643.187 1579.37 645.317 C 1583.29 647.404 1592.57 647.522 1596.82 647.076 C 1613.23 645.355 1613.3 601.433 1602.73 594.822 C 1599.31 592.68 1581.88 592.489 1577.35 593.798 C 1575.32 596.066 1575.61 599.708 1575.4 603.017 L 1537.91 603.381 L 1537.93 561.988 z" fill="rgb(245,247,250)" transform="translate(0,0)"></path>
<path d="M 1575.6 676.13 C 1603.9 676.074 1614.12 672.757 1611.02 706.328 C 1610.04 716.911 1614.16 723.972 1606.08 732.572 C 1605.47 732.92 1604.87 733.275 1604.27 733.638 C 1598.85 736.915 1582.77 735.776 1575.46 735.826 C 1575.64 716.108 1575.04 695.67 1575.6 676.13 z" fill="rgb(11,13,16)" transform="translate(0,0)"></path>
<path d="M 1354.18 561.446 C 1367.37 561.388 1380.77 561.627 1393.98 561.743 L 1394.03 769.033 L 1354.07 769.019 L 1354.17 680.49 L 1319.09 680.439 L 1319.06 767.045 L 1318.85 767.699 C 1315.86 770.095 1286.03 769.025 1279.99 768.993 L 1280.12 561.867 L 1319.04 561.907 L 1319.15 647.514 L 1354.03 647.666 C 1354.26 618.96 1353.65 590.147 1354.18 561.446 z" fill="rgb(245,247,250)" transform="translate(0,0)"></path>
<path d="M 1165.06 560.349 C 1166.86 560.208 1168.66 560.134 1170.46 560.126 C 1186.94 560.125 1204.95 565.737 1217.05 577.559 C 1230.16 590.363 1227.32 611.293 1227.15 629.147 L 1189.4 629.084 C 1189.32 617.708 1192.51 594.349 1175.77 591.877 C 1167.72 590.688 1156.62 596.384 1156.48 605.72 C 1155.86 645.447 1155.61 685.614 1156.95 725.325 C 1156.03 738.847 1177.25 744.267 1184.88 735.964 C 1193.29 726.801 1190.2 699.036 1190.04 686.821 L 1174.15 686.774 C 1174.3 677.052 1172.65 668.162 1174.81 658.84 C 1177.17 656.438 1176.28 657.187 1180.75 657.019 L 1228.08 657.094 L 1228.35 704.287 C 1228.39 712.305 1228.81 726.41 1227.52 733.846 C 1226.52 739.925 1224.12 745.688 1220.51 750.677 C 1197.35 782.23 1119.93 777.492 1117.48 730.508 C 1115.98 701.499 1117.08 671.905 1116.51 642.906 C 1115.68 600.577 1112.78 567.056 1165.06 560.349 z" fill="rgb(245,247,250)" transform="translate(0,0)"></path>
<path d="M 397.663 561.925 L 502.579 561.954 C 501.903 572.006 502.13 583.635 502.106 593.832 L 468.713 593.854 C 467.332 638.65 468.581 690.343 468.466 735.671 L 468.407 769.004 L 430.413 769.01 C 430.893 710.658 431.008 652.304 430.757 593.95 L 397.661 593.989 L 397.663 561.925 z" fill="rgb(245,247,250)" transform="translate(0,0)"></path>
<path d="M 934.983 561.839 L 974.853 561.867 L 974.164 768.873 C 967.144 769.876 943.01 769.215 934.85 769.13 L 934.983 561.839 z" fill="rgb(245,247,250)" transform="translate(0,0)"></path>
<path d="M 752.687 561.841 L 791.683 561.897 L 792.119 768.925 L 753.012 768.884 L 752.687 561.841 z" fill="rgb(245,247,250)" transform="translate(0,0)"></path>
<path d="M 1488.01 662.905 C 1500.81 662.694 1514.25 662.903 1527.1 662.918 C 1527.19 682.002 1529.01 719.74 1524.65 736.681 C 1513.41 780.399 1442.32 779.158 1414.33 750.705 C 1401.11 733.75 1404.15 709.552 1404.33 688.525 C 1417.52 688.42 1430.71 688.449 1443.9 688.612 C 1443.74 700.125 1440.81 723.05 1448.91 731.805 C 1452.74 735.954 1458.58 737.829 1464.1 738.149 C 1470.57 738.524 1477.95 737.025 1482.75 732.374 C 1491.7 723.693 1488.05 676.553 1488.01 662.905 z" fill="rgb(245,247,250)" transform="translate(0,0)"></path>
<path d="M 1404.85 562.002 L 1444.14 562 C 1444.11 579.973 1443.06 619.094 1444.97 635.978 L 1437.23 645.362 L 1429.98 655.107 L 1404.73 655.092 L 1404.85 562.002 z" fill="rgb(245,247,250)" transform="translate(0,0)"></path>
<path d="M 1487.84 561.831 L 1527.23 561.88 C 1527.2 580.034 1527.3 598.188 1527.54 616.341 C 1525.91 618.627 1524.03 620.991 1522.31 623.232 L 1516.26 629.547 L 1487.73 629.418 L 1487.84 561.831 z" fill="rgb(245,247,250)" transform="translate(0,0)"></path>
<path d="M 1545.53 615.102 C 1555.39 615.032 1592.08 613.44 1597.48 617.255 C 1598.17 620.751 1598.42 619.382 1596.59 622.382 C 1589.54 626.498 1559.83 624.802 1549.71 624.733 L 1530.12 649.919 L 1464.05 650.183 C 1458.76 656.293 1453.59 662.502 1448.53 668.807 L 1443 676.636 C 1432.57 676.603 1415.82 677.621 1406.08 676.171 C 1404.47 673.225 1405.02 672.907 1405.04 669.304 C 1409.98 665.135 1430.36 666.636 1437.73 666.696 C 1444.69 657.711 1451.35 649.08 1458.73 640.42 C 1479.24 639.592 1503.54 640.175 1524.33 640.145 L 1545.53 615.102 z" fill="rgb(198,255,0)" transform="translate(0,0)"></path>
<metadata><recraft-signature>{"signed_by": "recraft", "signature_b64": "8aR+Z0nD6pxIx8hLgZGqtqgK+OgP2MHaX/v0u47luw/+EW5Z1LP16/nrCMI8pKjt2vVAeed33kmwKbAYnl1UAg==", "signing_algo": "Ed25519", "generation_timestamp": 1783314942, "identifier": "5db2abec-a764-4f2f-b3ec-6e5b69de1ab9"}</recraft-signature></metadata></svg>