<svg xmlns="http://www.w3.org/2000/svg" height="832" preserveAspectRatio="none" style="display: block;" version="1.1" viewBox="0 0 2048 1331" width="1280">
<path d="M 0 0 L 2048 0 L 2048 1331 L 0 1331 L 0 0 z" fill="rgb(11,13,16)" transform="translate(0,0)"></path>
<path d="M 1618.65 623.963 C 1631.6 623.876 1646.64 624.142 1659.78 623.795 C 1684.48 623.143 1707.89 632.879 1695.48 661.901 C 1693.53 666.464 1686.84 668.259 1682.41 669.638 C 1700.24 674.939 1707.44 681.544 1703.51 701.282 C 1691.3 726.629 1643.61 718.975 1618.33 718.902 L 1618.65 623.963 z" fill="rgb(245,247,250)" transform="translate(0,0)"></path>
<path d="M 1630.93 677.171 C 1645.93 677.219 1671.72 675.091 1685.14 679.718 C 1693 682.428 1692.15 696.534 1686.73 703.726 L 1685.99 704.169 C 1675.13 710.826 1645.65 708.179 1630.87 708.367 C 1630.84 698.13 1630.63 687.351 1630.93 677.171 z" fill="rgb(11,13,16)" transform="translate(0,0)"></path>
<path d="M 1631 634.813 C 1649.16 635.028 1700.46 627.666 1681.85 661.193 C 1671.3 669.016 1644.38 665.972 1630.95 666.004 L 1631 634.813 z" fill="rgb(11,13,16)" transform="translate(0,0)"></path>
<path d="M 749.431 623.89 C 765.174 624.03 781.863 623.548 797.051 623.662 C 817.865 623.36 835.339 631.095 833.706 654.807 C 833.022 664.741 826.272 668.753 819.291 674.869 L 819.612 676.604 C 822.077 678.351 823.933 679.121 826.631 680.395 C 830.731 685.276 829.187 711.484 829.095 718.883 C 825.263 719.048 821.294 719.604 817.796 718.333 C 815.627 715.119 816.346 714.615 816.316 710.25 C 816.837 692.411 819.429 677.963 796.124 679.8 C 785.577 680.632 772.565 680.267 761.826 680.272 L 761.612 718.685 L 749.449 718.618 L 749.431 623.89 z" fill="rgb(245,247,250)" transform="translate(0,0)"></path>
<path d="M 762.044 635.043 C 774.165 635.155 801.509 633.45 812.568 637.867 C 822.114 641.679 821.59 656.203 815.221 664.882 C 803.676 671.45 776.956 669.021 762.003 669.072 L 762.044 635.043 z" fill="rgb(11,13,16)" transform="translate(0,0)"></path>
<path d="M 436.943 559.267 C 438.154 559.134 439.75 559.211 441.004 559.222 C 442.526 561.852 442.172 560.709 441.826 564.075 C 438.343 568.728 428.696 570.665 422.867 572.388 C 398.23 579.864 377.529 596.743 365.248 619.372 C 352.204 643.18 349.401 671.269 357.483 697.185 C 365.52 723.085 385.338 745.869 409.522 758.035 C 479.385 793.181 564.987 744.927 564.154 664.482 C 564.075 656.796 560.289 643.057 563.065 637.514 C 565.77 635.36 564.709 635.595 567.743 635.295 C 570.341 637.611 570.961 641.121 572.064 644.6 C 584.02 704.113 541.348 765.156 482.466 776.717 C 451.057 782.738 418.546 775.909 392.214 757.76 C 368.276 741.38 350.596 716.036 345.396 687.327 C 340.138 659.673 346.127 631.064 362.035 607.841 C 379.567 582.349 406.516 564.875 436.943 559.267 z" fill="rgb(245,247,250)" transform="translate(0,0)"></path>
<path d="M 874.356 623.26 L 904.131 623.479 C 915.858 656.161 926.791 685.646 937.923 718.847 L 926.004 718.892 C 922.647 710.612 919.278 700.152 916.271 691.584 L 903.75 691.43 L 863.544 691.303 L 853.387 718.853 L 841.121 718.602 C 851.152 687.367 863.299 654.296 874.356 623.26 z" fill="rgb(245,247,250)" transform="translate(0,0)"></path>
<path d="M 883.535 634.331 C 887.411 634.3 891.286 634.299 895.162 634.328 C 900.572 649.839 905.906 664.313 910.956 680.047 L 896.25 680.032 L 867.009 680.079 C 872.89 664.54 877.996 649.912 883.535 634.331 z" fill="rgb(11,13,16)" transform="translate(0,0)"></path>
<path d="M 988.25 623.872 L 1017.25 623.586 C 1031.13 648.841 1041.33 677.707 1055.13 703.147 C 1056.83 706.282 1058.23 708.479 1061.78 709.078 L 1063.24 707.916 C 1064.57 700.058 1064.09 684.584 1064.07 676.071 L 1063.94 623.789 C 1068.04 623.753 1072.37 623.876 1076.49 623.923 C 1076.77 655.578 1076.88 687.235 1076.81 718.892 L 1048.1 718.806 C 1035.34 695.472 1025.72 668.01 1013.12 644.268 C 1010.84 639.973 1007.41 630.576 1001.25 635.917 C 1000.1 643.897 1000.73 660.153 1000.78 668.731 L 1000.74 718.773 L 988.811 718.8 C 988.346 687.16 988.159 655.516 988.25 623.872 z" fill="rgb(245,247,250)" transform="translate(0,0)"></path>
<path d="M 1137.1 623.89 L 1165.7 623.776 C 1171.05 634.77 1201.99 704.554 1207.6 709.027 L 1210.92 708.571 C 1213.22 701.089 1212.25 635.83 1212.22 623.995 C 1216.11 623.826 1220.85 623.943 1224.81 623.933 L 1224.84 718.789 L 1195.74 718.744 C 1184.6 693.904 1173.09 668.289 1161.26 643.748 C 1159.54 640.167 1156.26 635.28 1152.23 634.134 L 1150.98 634.874 C 1148.09 641.512 1149.27 705.441 1149.22 718.883 L 1137.03 718.845 L 1137.1 623.89 z" fill="rgb(245,247,250)" transform="translate(0,0)"></path>
<path d="M 1283.99 622.182 C 1313.18 619.497 1331.58 630.195 1341.79 657.893 L 1328.64 657.951 L 1328.27 656.921 C 1324.93 647.857 1318.97 641.256 1310.21 637.275 C 1262.3 615.494 1235.26 686.054 1278 706.992 C 1286.15 710.984 1301.47 710.399 1309.77 706.641 C 1321.33 701.407 1326.88 691.644 1331.22 680.135 C 1320.56 679.596 1307.58 679.911 1296.75 679.894 C 1294.29 679.921 1294.05 679.833 1291.74 679.365 C 1289.64 676.349 1288.89 674.812 1290.17 671.341 C 1294.67 667.852 1335.54 669.651 1343.44 669.762 C 1343.45 678.447 1344.5 710.298 1342.97 716.852 C 1340.56 718.323 1339.55 717.927 1336.56 717.703 C 1333.73 713.779 1334.81 696.052 1334.9 690.162 C 1328.69 704.099 1320.32 715.037 1304.82 718.905 C 1239.8 735.13 1217.77 638.161 1283.99 622.182 z" fill="rgb(245,247,250)" transform="translate(0,0)"></path>
<path d="M 1475.98 665.074 C 1476 652.401 1475.62 639.331 1476.19 626.787 C 1476.35 623.119 1483.96 623.152 1487.2 625.237 C 1489.1 633.3 1488.06 707.36 1487.42 718.821 L 1475.98 718.792 L 1476 676.677 C 1456 677.294 1434.16 676.872 1414.02 676.859 L 1413.99 718.783 L 1401.62 718.633 L 1402.02 624.13 L 1414.17 623.963 L 1414.06 665.569 C 1434.44 665.102 1455.54 665.224 1475.98 665.074 z" fill="rgb(245,247,250)" transform="translate(0,0)"></path>
<path d="M 1583.08 623.788 C 1586.92 623.637 1591.82 622.842 1594.78 624.732 C 1596.75 627.654 1596.08 631.71 1595.98 635.5 C 1596.09 653.874 1599.82 696.424 1588.14 709.635 C 1574.15 724.902 1529.99 723.907 1516.86 709.023 C 1504.94 695.519 1509.48 642.321 1509.62 623.988 L 1521.97 624.032 C 1522.34 644.865 1520.6 669.8 1522.55 690.357 C 1524.15 707.186 1543.92 710.675 1558.17 709.673 C 1587.36 707.622 1583.65 685.666 1583.35 663.511 C 1583.27 651.105 1583.13 636.827 1583.08 623.788 z" fill="rgb(245,247,250)" transform="translate(0,0)"></path>
<path d="M 651.677 623.807 L 704.651 623.625 C 712.68 623.605 727.044 623.095 734.618 624.248 C 736.574 626.903 736.135 631.241 735.691 634.493 C 733.403 636.111 705.331 635.521 700.333 635.525 C 700.106 650.45 700.25 665.79 700.215 680.75 L 700.168 718.722 L 687.86 718.781 L 687.278 635.296 C 680.139 635.317 658.138 635.915 652.529 634.699 C 651.148 631.538 651.619 627.412 651.677 623.807 z" fill="rgb(245,247,250)" transform="translate(0,0)"></path>
<path d="M 462.518 552.29 C 463.235 552.27 463.951 552.261 464.668 552.263 C 492.35 552.229 526.759 566.657 546.403 586.217 L 534.373 597.261 C 533.951 597.407 531.525 598.76 530.996 598.428 C 511.899 586.465 494.796 574.821 471.403 574.189 C 464.949 574.015 455.905 571.835 453.855 564.221 C 453.249 561.934 453.585 559.5 454.787 557.463 C 456.66 554.265 459.191 553.291 462.518 552.29 z" fill="rgb(22,210,112)" transform="translate(0,0)"></path>
<path d="M 1100.29 623.925 L 1113.37 623.985 L 1113.05 719.002 L 1100.53 718.933 C 1100.68 687.264 1100.61 655.593 1100.29 623.925 z" fill="rgb(245,247,250)" transform="translate(0,0)"></path>
<path d="M 951.509 623.808 L 964.005 623.601 L 964.039 685.749 C 964.048 695.008 964.458 709.908 963.628 718.823 L 951.15 718.775 L 951.509 623.808 z" fill="rgb(245,247,250)" transform="translate(0,0)"></path>
<path d="M 551.173 593.111 C 567.213 592.266 580.027 601.506 573.6 618.393 C 572.112 622.377 569.001 625.542 565.043 627.098 C 564.228 627.425 563.311 627.75 562.48 628.069 C 546.847 628.415 535.658 624.72 539.278 603.587 C 540.072 598.954 546.919 595.106 551.173 593.111 z" fill="rgb(22,210,112)" transform="translate(0,0)"></path>
<metadata><recraft-signature>{"signed_by": "recraft", "signature_b64": "OG5b+vVYbF/Jchl6oWwLc0lnk+awCwPKSS3vpQ1FUOmc3thbVVSwzs/pJNkydmwWGhhVwtvH9K8h+vDO1L6zAQ==", "signing_algo": "Ed25519", "generation_timestamp": 1783314936, "identifier": "f9cb1395-1666-483a-a182-bbb981f7a02a"}</recraft-signature></metadata></svg>