<svg xmlns="http://www.w3.org/2000/svg" height="1024" preserveAspectRatio="none" style="display: block;" version="1.1" viewBox="0 0 2048 2048" width="1024">
<defs>
	<linearGradient gradientUnits="userSpaceOnUse" id="Gradient1" x1="1377.06" x2="1376.98" y1="845.135" y2="841.796">
		<stop class="stop0" offset="0" stop-color="rgb(157,181,41)" stop-opacity="1"></stop>
		<stop class="stop1" offset="1" stop-color="rgb(215,235,68)" stop-opacity="1"></stop>
	</linearGradient>
	<linearGradient gradientUnits="userSpaceOnUse" id="Gradient2" x1="1370.55" x2="1365.43" y1="1074.44" y2="1074.54">
		<stop class="stop0" offset="0" stop-color="rgb(213,243,42)" stop-opacity="1"></stop>
		<stop class="stop1" offset="1" stop-color="rgb(183,206,48)" stop-opacity="1"></stop>
	</linearGradient>
</defs>
<path d="M 0 0 L 167.185 0 L 179.036 0 L 446.976 0 L 458.558 0 L 2048 0 L 2048 984.995 L 2048 1007.1 L 2048 1036.91 L 2048 1058.68 L 2048 1089.17 L 2048 1110.62 L 2048 2048 L 0 2048 L 0 0 z" fill="rgb(11,13,16)" transform="translate(0,0)"></path>
<path d="M 179.036 0 L 446.976 0 L 447.383 298.838 C 447.372 322.854 446.358 341.041 428.008 359.062 C 419.258 367.576 408.409 373.621 396.563 376.581 C 380.711 380.569 348.901 379.127 331.535 379.038 L 260.621 379.037 C 235.456 378.949 215.708 376.261 196.83 357.763 C 175.348 336.712 178.604 309.262 178.676 281.848 L 178.733 223.201 L 179.036 0 z" fill="rgb(11,13,16)" transform="translate(0,0)"></path>
<path d="M 167.185 0 L 179.036 0 L 178.733 223.201 L 178.676 281.848 C 178.604 309.262 175.348 336.712 196.83 357.763 C 215.708 376.261 235.456 378.949 260.621 379.037 L 331.535 379.038 C 348.901 379.127 380.711 380.569 396.563 376.581 C 408.409 373.621 419.258 367.576 428.008 359.062 C 446.358 341.041 447.372 322.854 447.383 298.838 L 446.976 0 L 458.558 0 L 458.081 217.926 L 458.503 277.648 C 458.645 293.574 459.439 313.17 456.58 328.497 C 454.073 342.481 447.417 355.387 437.478 365.538 C 421.279 382.27 397.777 390.5 374.856 390.102 C 352.594 389.478 329.743 390.667 307.547 389.929 C 266.06 388.551 221.692 398.801 189.206 366.068 C 164.617 341.292 166.767 314.662 166.852 282.805 L 167.003 224.021 L 167.185 0 z" fill="rgb(245,247,250)" transform="translate(0,0)"></path>
<path d="M 2048 1007.1 C 2016.5 1007.66 1985 1007.71 1953.5 1007.26 C 1938.67 1007.18 1923.84 1007.51 1909.1 1006.54 C 1895.52 1005.65 1896.51 986.004 1907.84 985.34 C 1922.53 984.479 1938.8 984.936 1953.55 984.945 L 2048 984.995 L 2048 1007.1 z" fill="rgb(245,247,250)" transform="translate(0,0)"></path>
<path d="M 2048 1110.62 C 2030.58 1110.69 1912.89 1113.08 1905.09 1109.49 C 1901.86 1108.01 1899.89 1105.98 1899.03 1102.5 C 1898.23 1099.24 1899.04 1094.99 1901.2 1092.45 C 1902.93 1090.41 1904.99 1089.6 1907.53 1089.23 C 1921.37 1087.19 1937.72 1088.95 1951.84 1088.99 L 2048 1089.17 L 2048 1110.62 z" fill="rgb(245,247,250)" transform="translate(0,0)"></path>
<path d="M 2048 1058.68 C 2028.38 1058.77 1910.79 1061.42 1903.32 1056.3 C 1900.7 1054.5 1898.94 1051.69 1898.62 1048.5 C 1898.28 1045.2 1899.65 1042.54 1901.93 1040.29 C 1904.05 1038.19 1906.15 1037.45 1909.04 1037.11 C 1922.88 1035.51 1938.45 1036.86 1952.43 1036.87 L 2048 1036.91 L 2048 1058.68 z" fill="rgb(245,247,250)" transform="translate(0,0)"></path>
<path d="M 1819.07 135.615 C 1835.78 152.189 1853.03 168.263 1869.69 184.854 L 1644.63 412.508 C 1615.9 441.973 1583.93 472.4 1556.23 502.325 C 1599.86 501.348 1653.44 492.443 1698.11 490.636 C 1697.81 521.538 1697.76 552.442 1697.96 583.345 C 1719.07 583.856 1739.76 582.961 1760.8 582.965 L 1761.09 1460 C 1740.49 1459.5 1718.58 1458.99 1697.97 1459.59 C 1697.74 1486.31 1697.74 1513.02 1697.97 1539.74 L 1285.27 1494.24 C 1226.41 1486.99 1167.47 1480.43 1108.46 1474.58 C 1081.03 1471.67 1052.42 1467.6 1025.05 1465.94 C 1015.16 1465.33 994.451 1468.05 983.809 1469.23 L 925.694 1475.8 C 860.518 1482.92 795.378 1490.38 730.277 1498.16 L 459.898 1527.79 C 426.67 1531.56 380.952 1535.01 349.675 1540.29 C 349.201 1521.97 349.622 1503.78 349.476 1485.49 C 349.427 1479.38 349.545 1464.99 348.718 1459.22 C 348.564 1454.14 350.21 1453.94 349.222 1445.87 C 347.895 1421.43 349.138 1381.57 349.166 1356.07 L 349.14 1181.6 L 349.035 587.961 C 335.216 587.988 321.396 587.943 307.577 587.826 C 314.721 586.312 339.441 586.873 347.981 586.958 L 348.62 586.06 L 347.992 585.047 C 338.872 585.05 320.479 585.509 312.073 584.66 L 313.755 583.824 L 349.054 584.047 L 349.203 489.705 C 380.559 494.292 420.398 497.078 452.298 500.06 L 680.059 520.384 L 928.934 543.655 C 948.072 545.189 967.197 546.881 986.307 548.73 C 994.876 549.547 1017.38 552.186 1024.74 551.862 C 1049.05 550.792 1075.88 547.494 1100.28 545.26 C 1154.65 540.538 1208.98 535.435 1263.28 529.952 L 1384.67 518.497 C 1400.54 517.034 1432.2 515.128 1446.18 512.415 C 1454.5 505.484 1470.89 488.114 1478.87 480.011 L 1548.3 409.144 L 1819.07 135.615 z" fill="rgb(66,60,68)" transform="translate(0,0)"></path>
<path d="M 1555.06 507.563 C 1579.68 505.189 1604.98 503.593 1629.8 501.33 C 1649.56 499.528 1674.69 496.484 1693.96 495.833 C 1694.23 544.937 1692.92 596.283 1693.93 644.952 C 1694.01 650.618 1694.33 657.472 1693.85 663.024 L 1694.03 750.522 C 1694.05 763.162 1693.39 784.431 1694.31 796.579 L 1694.1 800.371 C 1694.11 807.063 1694.02 814.053 1694.15 820.714 C 1695.24 833.898 1694.84 853.057 1694.82 866.689 L 1694.63 950.74 L 1694.89 1052 C 1694.89 1058.01 1695.14 1087.06 1694.3 1090.82 L 1694.35 1173.86 C 1694.25 1191.26 1693.45 1213.27 1694.37 1230.02 L 1694.21 1233.93 L 1693.93 1382.86 C 1694.02 1389.87 1694.35 1398.23 1693.81 1405.08 C 1693.84 1447.32 1693.07 1492.27 1693.94 1534.31 C 1649.51 1530.66 1599.11 1524.37 1554.67 1519.16 C 1551.41 1519.23 1551.32 1519.38 1548.25 1518.47 L 1425.83 1504.97 L 1420.86 1504.49 C 1378.87 1498.99 1332.58 1494.92 1289.94 1490.04 L 1284.97 1489.64 C 1265.89 1486.79 1244.1 1484.76 1224.75 1482.54 C 1202.23 1479.96 1178.16 1476.85 1155.68 1474.95 L 1151.17 1474.47 C 1137.48 1472.23 1119.21 1470.85 1105.17 1469.36 L 1026.67 1460.68 C 1026.56 1433.43 1026.6 1406.17 1026.8 1378.92 C 1026.85 1366.35 1027.43 1347.97 1026.51 1335.83 C 1025.93 1333.48 1026.17 1333.49 1026.27 1330.96 C 1027.37 1325.35 1026.91 1296.67 1026.91 1289.15 C 1026.99 1260.15 1026.92 1231.15 1026.69 1202.15 L 1026.65 1197.93 C 1027.46 1184.93 1026.82 1163.69 1026.83 1150.24 C 1026.84 1124.36 1027.23 1097.56 1026.7 1071.77 L 1026.54 1067.02 C 1027.27 1060.52 1026.92 1047.67 1026.94 1040.7 L 1022.26 1040.53 C 995.276 1041.25 967.996 1040.6 941.023 1040.95 C 929.838 1041.1 910.599 1040.42 900.146 1041.97 C 896.66 1042.14 891.95 1042.22 888.588 1042.57 C 882.529 1043.18 871.901 1043.06 865.505 1043.18 C 862.287 1037.61 861.084 1039.38 853.986 1040.14 C 852.321 1040.06 851.046 1040.04 849.368 1040.05 C 831.011 1039.48 812.645 1039.26 794.279 1039.38 L 777.801 1039.23 C 776.416 1048.28 777.03 1072.2 777.096 1082.26 L 777.163 1146.63 C 777.323 1169.12 781.825 1193.73 763.903 1210.32 C 762.836 1211.05 759.382 1213.25 758.697 1214.02 C 736.647 1226.96 707.454 1220.55 694.834 1197.85 C 689.672 1188.56 688.31 1178.62 686.437 1168.34 C 664.917 1169.11 641.854 1172.04 633.831 1146.54 C 634.58 1141.52 634.301 1119.01 633.775 1113.67 C 630.999 1112.6 630.996 1113.35 627.345 1114.57 C 609.941 1116.02 601.2 1115.25 589.693 1101.29 L 590.495 1099.73 C 587.882 1095.84 586.806 1092.64 587.773 1087.84 C 586.602 1086.28 586.208 1086.08 585.72 1084.29 C 585.783 1082.93 585.837 1081.57 585.88 1080.21 C 586.655 1071.24 587.025 1061.96 588.28 1053.22 L 589.149 1038.34 C 582.746 1037.13 573.689 1037.75 566.629 1036.46 C 562.127 1035.64 554.913 1034.94 550.249 1034.46 C 545.322 1027.81 545.249 1024.42 543.916 1015.97 C 545.025 1010.26 542.507 1003.41 544.773 997.495 C 545.175 996.445 545.315 995.218 545.5 994.127 C 552.335 967.571 585.731 976.257 590.1 971.212 C 589.955 968.019 590.725 964.855 589.652 962.025 C 589.056 958.392 589.021 953.034 588.876 949.224 L 589.051 936.936 C 590.808 935.602 590.965 935.688 590.892 933.483 C 591.693 930.576 592.022 928.937 592.588 925.936 C 594.196 920.537 595.032 916.273 598.699 911.74 C 609.606 898.252 622.746 903.868 635.543 902.238 C 634.97 895.947 635.459 891.023 634.861 884.976 C 634.729 879.12 634.941 873.214 635.087 867.354 C 636.507 866.131 637.258 866.079 637.241 864.143 C 637.325 852.989 648.585 845.646 659.118 846.117 L 662.848 845.806 L 662.071 843.974 C 665.937 843.357 681.454 842.027 685.453 842.277 C 686.026 829.649 686.128 824.167 692.616 812.95 L 695.459 809.732 C 696.165 808.818 698.883 806.402 699.872 805.476 L 705.121 801.738 C 709.747 800.402 714.586 799.44 718.813 797.046 C 722.62 793.062 734.9 792.448 740.001 793.069 C 752.009 794.531 758.325 797.824 766.563 806.179 L 769.016 805.006 L 773.64 810.849 L 777.395 818.763 C 782.911 835.874 777.735 875.924 778.23 896.035 C 778.567 909.722 779.23 929.268 779.069 942.837 C 779.2 947.969 779.194 957.609 779.835 962.33 C 779.78 969.292 779.73 975.889 780.001 982.846 L 845.715 982.542 C 852.433 981.948 861.353 981.9 868.248 981.66 C 883.827 981.833 906.196 982.439 921.229 981.157 C 941.303 981.14 961.377 981.021 981.449 980.8 C 994.312 981.553 1013.85 980.741 1026.95 980.416 L 1027.06 955.81 L 1026.86 951.743 L 1026.83 943.112 C 1025.73 933.98 1025.47 825.145 1026.7 821.328 C 1027.05 815.159 1026.96 808.112 1026.83 801.873 C 1026.12 765.104 1027.96 727.558 1026.63 690.868 C 1026.41 689.547 1026.5 687.456 1026.49 686.118 C 1027.44 677.766 1026.59 652.066 1026.51 642.649 C 1026.15 614.104 1026.1 585.556 1026.34 557.011 L 1148.24 545.551 C 1149.62 544.823 1152.4 545.111 1154.22 545.112 C 1194.37 542.498 1244.04 536.976 1284.33 532.526 C 1285.91 531.805 1288.25 532.041 1290.17 532.016 C 1310.32 531.351 1340.08 527.205 1361.17 525.491 C 1377.64 524.153 1407.62 522.238 1422.66 519.848 C 1422.06 526.099 1421.25 532.017 1420.87 538.34 C 1413.56 545.65 1409.04 548.961 1405.7 558.761 C 1406.55 566.491 1406.68 567.312 1410.75 573.716 C 1416.14 576.323 1417.25 577.061 1423.14 577.456 C 1424.51 577.284 1426.69 576.768 1428.06 577.221 C 1428.33 577.547 1428.28 577.373 1428.29 577.711 C 1428.15 577.91 1428.01 578.109 1427.87 578.308 C 1428.04 582.579 1427.98 586.562 1429.32 590.598 C 1433.98 604.661 1451.45 598.988 1455.48 600.875 L 1454.92 603.322 C 1457.16 602.811 1539.38 519.154 1548.63 509.932 L 1550.55 507.731 L 1555.06 507.563 z" fill="rgb(11,13,16)" transform="translate(0,0)"></path>
<path d="M 1322.31 790.355 C 1339.36 793.253 1345.54 796.142 1357.14 808.989 L 1361.22 815.197 C 1365.68 825.741 1365.83 829.147 1365.98 840.516 C 1388.84 840.58 1405.17 839.231 1419.78 860.738 L 1425.08 871.245 C 1426.99 882.639 1427.13 888.763 1426.94 900.347 C 1446.25 900.066 1455.19 899.23 1467.6 915.798 C 1471.59 920.22 1473.05 924.047 1474.26 929.901 C 1473.89 938.272 1474.06 947.073 1474.18 955.488 C 1474.09 959.715 1474.06 963.883 1473.87 968.111 C 1473.94 969.997 1474.02 971.882 1474.11 973.766 C 1474.78 974.867 1474.78 975.353 1475.09 976.629 L 1475.13 978.161 C 1481.78 978.883 1487.16 978.466 1493.81 978.007 C 1503.28 980.71 1504.68 981.836 1509.59 991.448 C 1510.95 996.364 1510.69 998.334 1511.13 1003.47 C 1510.93 1011.97 1510.92 1025.24 1504.43 1031.45 C 1495.92 1039.6 1481.96 1037.3 1474.55 1039.28 C 1473.37 1039.41 1472.27 1039.42 1471.09 1039.46 L 1470.24 1038.98 C 1467.75 1052.58 1471.3 1084.76 1468.73 1101.21 C 1459.64 1114.16 1450.47 1113.28 1435.96 1113.84 C 1432.7 1113.49 1429.42 1112.7 1426.5 1113.88 C 1425.1 1122.87 1425.93 1135.34 1425.31 1145.01 L 1420.73 1153.16 C 1406.39 1172.74 1391.72 1171.89 1369.53 1172.21 C 1366.83 1189.43 1365.15 1200.23 1349.94 1211.42 C 1349.37 1211.84 1348.79 1212.25 1348.21 1212.65 L 1339.87 1217.02 C 1323.18 1222.04 1305.32 1221.8 1291.35 1209.9 C 1284.88 1204.49 1280.2 1197.25 1277.91 1189.13 C 1274.8 1177.83 1276.44 1157.81 1276.03 1145.39 C 1275.35 1124.54 1276.17 1100.2 1274.26 1079.58 L 1274.14 1078.29 L 1274.91 1075.17 C 1273.66 1070.18 1272.86 1046.97 1272.55 1040.79 C 1233.93 1041.39 1192.97 1040.58 1154.01 1040.75 L 1149.28 1040.66 C 1113.07 1042.23 1063.91 1040.98 1026.94 1040.7 L 1022.26 1040.53 C 995.276 1041.25 967.996 1040.6 941.023 1040.95 C 929.838 1041.1 910.599 1040.42 900.146 1041.97 C 896.66 1042.14 891.95 1042.22 888.588 1042.57 C 882.529 1043.18 871.901 1043.06 865.505 1043.18 C 862.287 1037.61 861.084 1039.38 853.986 1040.14 C 852.321 1040.06 851.046 1040.04 849.368 1040.05 C 831.011 1039.48 812.645 1039.26 794.279 1039.38 L 777.801 1039.23 C 776.416 1048.28 777.03 1072.2 777.096 1082.26 L 777.163 1146.63 C 777.323 1169.12 781.825 1193.73 763.903 1210.32 C 762.836 1211.05 759.382 1213.25 758.697 1214.02 C 736.647 1226.96 707.454 1220.55 694.834 1197.85 C 689.672 1188.56 688.31 1178.62 686.437 1168.34 C 664.917 1169.11 641.854 1172.04 633.831 1146.54 C 634.58 1141.52 634.301 1119.01 633.775 1113.67 C 630.999 1112.6 630.996 1113.35 627.345 1114.57 C 609.941 1116.02 601.2 1115.25 589.693 1101.29 L 590.495 1099.73 C 587.882 1095.84 586.806 1092.64 587.773 1087.84 C 586.602 1086.28 586.208 1086.08 585.72 1084.29 C 585.783 1082.93 585.837 1081.57 585.88 1080.21 C 586.655 1071.24 587.025 1061.96 588.28 1053.22 L 589.149 1038.34 C 582.746 1037.13 573.689 1037.75 566.629 1036.46 C 562.127 1035.64 554.913 1034.94 550.249 1034.46 C 545.322 1027.81 545.249 1024.42 543.916 1015.97 C 545.025 1010.26 542.507 1003.41 544.773 997.495 C 545.175 996.445 545.315 995.218 545.5 994.127 C 552.335 967.571 585.731 976.257 590.1 971.212 C 589.955 968.019 590.725 964.855 589.652 962.025 C 589.056 958.392 589.021 953.034 588.876 949.224 L 589.051 936.936 C 590.808 935.602 590.965 935.688 590.892 933.483 C 591.693 930.576 592.022 928.937 592.588 925.936 C 594.196 920.537 595.032 916.273 598.699 911.74 C 609.606 898.252 622.746 903.868 635.543 902.238 C 634.97 895.947 635.459 891.023 634.861 884.976 C 634.729 879.12 634.941 873.214 635.087 867.354 C 636.507 866.131 637.258 866.079 637.241 864.143 C 637.325 852.989 648.585 845.646 659.118 846.117 L 662.848 845.806 L 662.071 843.974 C 665.937 843.357 681.454 842.027 685.453 842.277 C 686.026 829.649 686.128 824.167 692.616 812.95 L 695.459 809.732 C 696.165 808.818 698.883 806.402 699.872 805.476 L 705.121 801.738 C 709.747 800.402 714.586 799.44 718.813 797.046 C 722.62 793.062 734.9 792.448 740.001 793.069 C 752.009 794.531 758.325 797.824 766.563 806.179 L 769.016 805.006 L 773.64 810.849 L 777.395 818.763 C 782.911 835.874 777.735 875.924 778.23 896.035 C 778.567 909.722 779.23 929.268 779.069 942.837 C 779.2 947.969 779.194 957.609 779.835 962.33 C 779.78 969.292 779.73 975.889 780.001 982.846 L 845.715 982.542 C 852.433 981.948 861.353 981.9 868.248 981.66 C 883.827 981.833 906.196 982.439 921.229 981.157 C 941.303 981.14 961.377 981.021 981.449 980.8 C 994.312 981.553 1013.85 980.741 1026.95 980.416 C 1067.3 979.319 1108.55 979.961 1149.27 979.014 L 1155.11 978.999 C 1171.2 978.919 1189.58 978.424 1205.48 979.086 C 1228.48 978.783 1251.49 978.731 1274.5 978.929 C 1274.56 970.053 1274.31 960.798 1274.21 951.89 L 1274.19 946.166 C 1273.95 936.405 1273.86 926.642 1273.9 916.879 C 1277.13 912.578 1276.8 903.741 1275.89 898.611 C 1276.37 887.052 1276.99 882.04 1276.28 870.166 C 1275.8 856.499 1275.46 842.669 1276.82 828.993 C 1278.57 811.425 1293.3 799.496 1309.53 795.148 C 1312.25 794.418 1314.72 794.329 1317.15 792.806 L 1322.31 790.355 z" fill="rgb(198,255,0)" transform="translate(0,0)"></path>
<path d="M 1155.11 978.999 C 1171.2 978.919 1189.58 978.424 1205.48 979.086 C 1214.59 981.09 1268.45 978.728 1270.5 981.649 L 1271.21 980.689 L 1272.06 981.417 C 1268.71 983.772 1229.64 983.401 1222.8 982.733 C 1216.82 982.149 1207.9 983.64 1202.54 982.919 L 1202.6 983.55 C 1206.81 983.522 1224.57 982.712 1226.71 984.739 C 1194.75 985.344 1163.21 983.999 1131.33 983.943 L 911.597 984.155 C 905.243 985.939 905.376 985.18 898.978 985.867 C 892.16 986.772 857.946 986.014 850.984 984.669 C 849.615 984.575 846.954 983.161 845.715 982.542 C 852.433 981.948 861.353 981.9 868.248 981.66 C 883.827 981.833 906.196 982.439 921.229 981.157 C 941.303 981.14 961.377 981.021 981.449 980.8 C 994.312 981.553 1013.85 980.741 1026.95 980.416 C 1067.3 979.319 1108.55 979.961 1149.27 979.014 L 1155.11 978.999 z" fill="rgb(193,212,62)" transform="translate(0,0)"></path>
<path d="M 850.984 984.669 C 869.464 983.128 892.942 983.406 911.597 984.155 C 905.243 985.939 905.376 985.18 898.978 985.867 C 892.16 986.772 857.946 986.014 850.984 984.669 z" fill="rgb(104,128,29)" transform="translate(0,0)"></path>
<path d="M 911.597 984.155 L 1131.33 983.943 C 1163.21 983.999 1194.75 985.344 1226.71 984.739 C 1235.02 984.849 1269.71 984.129 1274.77 986.125 L 1274.39 987.588 C 1269.46 990.376 1235.01 988.84 1227.2 988.768 L 1131.98 987.806 C 1055.47 987.186 975.045 988.25 898.978 985.867 C 905.376 985.18 905.243 985.939 911.597 984.155 z" fill="rgb(11,13,16)" transform="translate(0,0)"></path>
<path d="M 1467.6 915.798 C 1471.59 920.22 1473.05 924.047 1474.26 929.901 C 1473.89 938.272 1474.06 947.073 1474.18 955.488 C 1474.09 959.715 1474.06 963.883 1473.87 968.111 C 1473.94 969.997 1474.02 971.882 1474.11 973.766 C 1474.78 974.867 1474.78 975.353 1475.09 976.629 L 1475.13 978.161 C 1468.28 974.812 1467.62 965.339 1466.82 958.029 C 1467.39 947.564 1466.47 937.317 1467.71 926.973 C 1467.83 924.96 1467.87 923.363 1467.86 921.362 C 1467.34 919.892 1467.23 918.929 1467.43 917.391 L 1467.6 915.798 z" fill="rgb(104,128,29)" transform="translate(0,0)"></path>
<path d="M 1466.82 958.029 C 1468.25 955.074 1468.58 952.843 1469.51 950.759 C 1471.86 955.331 1473.05 963.19 1473.87 968.111 C 1473.94 969.997 1474.02 971.882 1474.11 973.766 C 1474.78 974.867 1474.78 975.353 1475.09 976.629 L 1475.13 978.161 C 1468.28 974.812 1467.62 965.339 1466.82 958.029 z" fill="rgb(193,212,62)" transform="translate(0,0)"></path>
<path d="M 1467.86 921.362 C 1472.37 926.495 1471.11 930.794 1471.85 937.503 C 1472.02 939.048 1472.09 942.499 1471.51 944.278 C 1471.4 944.612 1471.03 944.659 1470.82 944.425 C 1469.49 937.54 1470.34 934.012 1467.71 926.973 C 1467.83 924.96 1467.87 923.363 1467.86 921.362 z" fill="rgb(53,71,17)" transform="translate(0,0)"></path>
<path d="M 662.071 843.974 C 665.937 843.357 681.454 842.027 685.453 842.277 C 686.125 843.091 686.724 843.882 687.365 844.718 L 687.948 845.075 L 689.449 847.358 C 679.162 847.097 669.876 847.655 659.78 847.645 C 648.92 848.981 642.149 854.454 637.241 864.143 C 637.325 852.989 648.585 845.646 659.118 846.117 L 662.848 845.806 L 662.071 843.974 z" fill="rgb(11,13,16)" transform="translate(0,0)"></path>
<path d="M 662.071 843.974 C 665.937 843.357 681.454 842.027 685.453 842.277 C 686.125 843.091 686.724 843.882 687.365 844.718 C 678.733 844.692 670.973 845.676 662.848 845.806 L 662.071 843.974 z" fill="rgb(157,175,52)" transform="translate(0,0)"></path>
<path d="M 718.813 797.046 C 722.62 793.062 734.9 792.448 740.001 793.069 C 752.009 794.531 758.325 797.824 766.563 806.179 C 767.049 807.231 767.837 808.246 767.911 809.437 C 767.845 809.496 767.78 809.555 767.715 809.614 C 767.027 809.466 762.541 805.158 761.591 804.422 C 745.778 792.177 735.799 795.458 718.813 797.046 z" fill="rgb(11,13,16)" transform="translate(0,0)"></path>
<path d="M 588.28 1053.22 C 589.82 1054.38 589.668 1054.34 590.747 1056 C 587.982 1062.05 588.574 1076.95 588.137 1084.65 L 587.773 1087.84 C 586.602 1086.28 586.208 1086.08 585.72 1084.29 C 585.783 1082.93 585.837 1081.57 585.88 1080.21 C 586.655 1071.24 587.025 1061.96 588.28 1053.22 z" fill="rgb(193,212,62)" transform="translate(0,0)"></path>
<path d="M 687.948 845.075 C 688.217 841.729 686.711 824.201 691.336 825.923 C 690.813 833.33 691.698 840.86 689.449 847.358 L 687.948 845.075 z" fill="rgb(104,128,29)" transform="translate(0,0)"></path>
<path d="M 590.747 1056 C 591.173 1066.4 590.797 1073.63 590.024 1084.06 L 588.137 1084.65 C 588.574 1076.95 587.982 1062.05 590.747 1056 z" fill="rgb(104,128,29)" transform="translate(0,0)"></path>
<path d="M 590.024 1084.06 C 590.096 1089.93 590.796 1093.68 590.495 1099.73 C 587.882 1095.84 586.806 1092.64 587.773 1087.84 L 588.137 1084.65 L 590.024 1084.06 z" fill="rgb(11,13,16)" transform="translate(0,0)"></path>
<path d="M 714.741 813.829 C 729.223 805.192 743.1 805.264 756.268 816.409 C 769.637 830.806 763.384 921.136 762.251 945.146 L 762.044 949.8 C 761.78 956.659 759.202 995.789 760.607 998.934 C 764.294 999.133 769.966 999.264 773.446 999.863 C 779.753 1000.23 779.244 997.761 782.494 997.561 C 795.043 996.789 807.933 997.339 820.51 997.589 L 884.246 998.393 C 889.169 998.432 895.113 998.316 899.944 998.62 C 942.457 999.574 984.977 1000.18 1027.5 1000.43 C 1067.83 1000.92 1109.61 1002 1149.84 1002.01 C 1174.35 1002.14 1210.82 1001.19 1234.36 1002.82 C 1247.43 1002.61 1264.34 1002.21 1277.1 1004.83 C 1280.61 1005.56 1280.53 1005.29 1284.24 1004.39 C 1286.01 1003.84 1287.91 1003.82 1289.75 1003.66 C 1290.31 1002.89 1290.87 1002.12 1291.43 1001.35 C 1291.11 987.036 1290.99 965.971 1290.89 952.202 L 1290.81 946.433 C 1291.15 921.786 1290.1 897.131 1290.11 872.545 C 1290.11 855.939 1286.05 828.175 1297.78 815.77 C 1310.9 805.427 1332.57 804.545 1345.84 815.162 C 1348.34 818.984 1349.9 821.204 1351.77 825.396 C 1349.82 838.506 1351.84 846.986 1346.14 856.629 C 1347.26 857.033 1348.39 857.437 1349.51 857.84 C 1350.96 887.638 1351.22 915.063 1351.25 945.01 L 1351.1 949.944 L 1351.14 985.629 C 1353.96 1004.55 1353.18 1030.47 1353.87 1050.06 C 1354.25 1054.34 1353.77 1064.02 1352.17 1068.41 L 1352.07 1068.03 L 1351.9 1067.86 C 1349.66 1070.2 1350.35 1072.72 1349.61 1076 L 1349.22 1080.9 C 1349.12 1090.29 1347.45 1161.92 1349.56 1166.27 C 1352.18 1168.23 1352.54 1168.14 1355.61 1169.02 C 1357.93 1173.63 1356.21 1178.14 1354.52 1183.09 C 1351.49 1191.93 1344.95 1199.13 1336.45 1203 C 1328.81 1206.54 1317.15 1207.92 1309.13 1204.81 C 1304.79 1203.12 1296.77 1198.25 1295.68 1193.36 C 1296.8 1184.59 1296.28 1163.45 1296.24 1153.73 L 1295.87 1080.99 L 1295.79 1075.89 C 1295.96 1064.67 1295.63 1053.97 1295.31 1042.76 L 1296.08 1025.05 L 1270.36 1024.83 C 1259.45 1025.83 1233.41 1024.96 1221.44 1024.85 C 1199.77 1025.8 1171.71 1025 1149.58 1024.98 L 1026.96 1025.26 C 1008.23 1026.06 989.482 1026.25 970.739 1025.83 C 966.538 1026.41 960.54 1025.72 957.015 1023.14 C 937.476 1023.39 918.729 1024.65 899.151 1024.2 L 892.96 1024.17 C 850.411 1023.71 807.858 1024 765.319 1025.04 L 760.871 1025.19 L 762.357 1075.49 L 762.764 1086.56 C 762.958 1105.56 763.176 1124.74 763.359 1143.72 C 763.463 1154.55 764.899 1174.37 763.517 1183.96 C 744.085 1213.49 706.582 1205.41 702.912 1169.92 C 702.528 1166.21 703.206 1162.74 706.159 1160.45 C 708.544 1158.61 704.966 1149.36 705.545 1146.19 C 704.762 1124.9 704.978 1103.2 704.953 1081.89 L 704.83 1076.94 C 704.965 1072.22 704.687 1067.44 704.49 1062.71 C 703.404 1036.72 703.038 1010.76 701.901 984.767 L 701.851 965.045 C 700.965 956.262 700.779 947.429 701.828 938.654 C 702.324 927.045 703.046 915.447 703.993 903.866 C 701.13 902.329 700.875 902.235 701.33 899.009 C 701.387 887.622 700.341 876.049 701.834 864.483 C 701.817 861.228 702.003 858.111 702.172 854.868 C 702.434 852.28 702.431 851.971 702.307 849.336 C 698.759 836.222 704.022 822.022 714.741 813.829 z" fill="rgb(11,13,16)" transform="translate(0,0)"></path>
<path d="M 702.307 849.336 C 702.323 849.338 707.582 850.041 707.584 850.493 C 707.654 868.065 704.741 886.161 703.993 903.866 C 701.13 902.329 700.875 902.235 701.33 899.009 C 701.387 887.622 700.341 876.049 701.834 864.483 C 701.817 861.228 702.003 858.111 702.172 854.868 C 702.434 852.28 702.431 851.971 702.307 849.336 z" fill="rgb(193,212,62)" transform="translate(0,0)"></path>
<path d="M 702.172 854.868 C 708.004 856.286 704.253 870.839 703.873 876.439 C 703.534 876.689 703.194 876.939 702.855 877.189 C 702.773 877.191 702.692 877.193 702.61 877.195 C 701.921 875.831 702.004 866.827 701.834 864.483 C 701.817 861.228 702.003 858.111 702.172 854.868 z" fill="rgb(11,13,16)" transform="translate(0,0)"></path>
<path d="M 701.33 899.009 C 701.387 887.622 700.341 876.049 701.834 864.483 C 702.004 866.827 701.921 875.831 702.61 877.195 C 702.692 877.193 702.773 877.191 702.855 877.189 C 703.194 876.939 703.534 876.689 703.873 876.439 C 703.627 883.618 701.674 891.606 701.33 899.009 z" fill="rgb(69,98,19)" transform="translate(0,0)"></path>
<path d="M 957.015 1023.14 C 963.889 1022.16 1023.36 1018.57 1027.29 1020.88 C 1027.32 1020.97 1027.34 1021.07 1027.37 1021.17 C 1027.23 1021.56 1027.09 1021.95 1026.96 1022.33 C 1019.49 1023.77 1010.35 1022.24 1004 1023.33 C 996.964 1024.53 975.098 1022.93 969.99 1024.54 C 970.026 1024.98 970.515 1025.52 970.739 1025.83 C 966.538 1026.41 960.54 1025.72 957.015 1023.14 z" fill="rgb(157,175,52)" transform="translate(0,0)"></path>
<path d="M 1351.14 985.629 C 1353.96 1004.55 1353.18 1030.47 1353.87 1050.06 C 1352.62 1044.92 1350.82 1031.98 1349.13 1029.2 C 1348.27 1021.08 1349.08 1011.35 1350.55 1003.25 C 1351.59 997.541 1350.71 991.683 1351.14 985.629 z" fill="rgb(69,98,19)" transform="translate(0,0)"></path>
<path d="M 1349.13 1029.2 C 1350.82 1031.98 1352.62 1044.92 1353.87 1050.06 C 1354.25 1054.34 1353.77 1064.02 1352.17 1068.41 L 1352.07 1068.03 L 1351.9 1067.86 C 1349.66 1070.2 1350.35 1072.72 1349.61 1076 C 1348.75 1069.44 1348.75 1036.51 1349.13 1029.2 z" fill="rgb(157,175,52)" transform="translate(0,0)"></path>
<path d="M 1289.75 1003.66 C 1288.76 1009.4 1291.55 1023.59 1285.95 1022.16 C 1285.78 1017.71 1286.47 1007.67 1284.24 1004.39 C 1286.01 1003.84 1287.91 1003.82 1289.75 1003.66 z" fill="rgb(61,60,54)" transform="translate(0,0)"></path>
<path d="M 1349.51 857.84 C 1348.33 859.186 1345.06 863.866 1344.06 864.299 C 1340.59 865.794 1346.04 856.811 1346.14 856.629 C 1347.26 857.033 1348.39 857.437 1349.51 857.84 z" fill="rgb(193,212,62)" transform="translate(0,0)"></path>
<path d="M 1024.19 1001.76 C 1026.26 1003.67 1026.89 1004.2 1024.86 1006.39 C 1020.91 1007.44 1023.09 1004.35 1024.19 1001.76 z" fill="rgb(61,60,54)" transform="translate(0,0)"></path>
<path d="M 1367.09 857.664 C 1367.86 855.185 1410.63 850.714 1410.06 875.163 C 1408.91 877.329 1408.16 879.039 1406.93 881.231 L 1406.95 881.808 L 1410.38 881.03 C 1412.86 879.366 1413 880.613 1412.71 883.455 C 1411.8 892.507 1416.25 901.154 1409.46 908.002 C 1406.48 907.359 1407.23 909.49 1406.15 912.71 C 1406.03 915.537 1405.38 916.958 1406.74 918.533 C 1407.79 918.469 1409.22 918.119 1410.28 917.903 C 1411.44 917.057 1411.45 917 1412.64 917.82 C 1413.25 925.043 1413.84 965.573 1412.47 971.792 C 1412.21 971.394 1412.09 970.676 1411.97 970.192 L 1409.59 973.905 C 1410.4 988.276 1411.05 1000.15 1410.68 1014.58 C 1410.16 1035.45 1407.4 1057.52 1407.14 1078.2 C 1407.2 1084.25 1407.49 1088.33 1406.12 1094.3 C 1407.77 1111.29 1418.98 1153.33 1394.74 1156.52 C 1389.13 1157.25 1380.61 1157.81 1375.15 1155.94 C 1373.85 1155.42 1373.07 1152.67 1372.49 1151.1 C 1371.81 1153.43 1372.35 1153.01 1370.6 1154.83 L 1371.91 1153.5 L 1370.92 1155.36 L 1370.51 1155.41 C 1370.26 1152.7 1370.26 1149.85 1369.11 1147.35 C 1369.1 1150.3 1369.49 1153.14 1368.08 1155.58 C 1365.22 1155.96 1365.43 1155.99 1362.72 1154.99 C 1359.05 1149.45 1361.32 1140.07 1361.41 1133.41 C 1361.77 1107.05 1364.05 1080.88 1364.15 1054.52 C 1363.12 1037.44 1364.43 1016.87 1364.21 999.413 C 1363.89 994.498 1363.34 996.668 1365.62 992.589 L 1365.9 994.429 C 1368.09 988.987 1367.76 985.74 1368.11 979.758 C 1368.39 973.002 1367.71 961.215 1367.53 954.076 C 1366.74 924.092 1367.24 892.529 1367.4 862.427 L 1367.46 859.715 L 1367.09 857.664 z" fill="rgb(11,13,16)" transform="translate(0,0)"></path>
<path d="M 1364.21 999.413 C 1366.8 999.923 1367.1 1020.61 1366.95 1023.68 L 1369.11 1147.35 C 1369.1 1150.3 1369.49 1153.14 1368.08 1155.58 C 1365.22 1155.96 1365.43 1155.99 1362.72 1154.99 C 1359.05 1149.45 1361.32 1140.07 1361.41 1133.41 C 1361.77 1107.05 1364.05 1080.88 1364.15 1054.52 C 1363.12 1037.44 1364.43 1016.87 1364.21 999.413 z" fill="rgb(11,13,16)" transform="translate(0,0)"></path>
<path d="M 1364.21 999.413 C 1366.8 999.923 1367.1 1020.61 1366.95 1023.68 C 1366.65 1023.34 1365.83 1022.44 1365.47 1022.24 C 1364.93 1023.4 1364.76 1049.86 1364.15 1054.52 C 1363.12 1037.44 1364.43 1016.87 1364.21 999.413 z" fill="rgb(104,128,29)" transform="translate(0,0)"></path>
<path d="M 1368.11 979.758 C 1368.99 986.477 1368.99 993.231 1369.16 999.996 C 1369.79 1025.58 1371.03 1051.14 1372.23 1076.7 C 1372.26 1077.93 1372.35 1083.96 1372.52 1084.82 C 1372.76 1093.89 1374.08 1145.27 1372.49 1151.1 C 1371.81 1153.43 1372.35 1153.01 1370.6 1154.83 L 1371.91 1153.5 L 1370.92 1155.36 L 1370.51 1155.41 C 1370.26 1152.7 1370.26 1149.85 1369.11 1147.35 L 1366.95 1023.68 C 1367.1 1020.61 1366.8 999.923 1364.21 999.413 C 1363.89 994.498 1363.34 996.668 1365.62 992.589 L 1365.9 994.429 C 1368.09 988.987 1367.76 985.74 1368.11 979.758 z" fill="url(#Gradient2)" transform="translate(0,0)"></path>
<path d="M 1367.09 857.664 C 1367.86 855.185 1410.63 850.714 1410.06 875.163 C 1408.91 877.329 1408.16 879.039 1406.93 881.231 L 1406.51 880.061 C 1404.93 875.669 1403.99 868.424 1400.66 865.355 C 1393.01 858.288 1377.25 859.903 1367.46 859.715 L 1367.09 857.664 z" fill="rgb(193,212,62)" transform="translate(0,0)"></path>
<path d="M 1367.09 857.664 C 1367.86 855.185 1410.63 850.714 1410.06 875.163 C 1405.22 872.754 1406.62 869.574 1403.37 865.574 C 1398.13 859.111 1391.99 858.54 1384.51 857.335 C 1379.56 856.538 1381.25 857.363 1376.5 857.5 C 1373.36 857.588 1370.23 857.642 1367.09 857.664 z" fill="rgb(11,13,16)" transform="translate(0,0)"></path>
<path d="M 1410.28 917.903 C 1411.44 917.057 1411.45 917 1412.64 917.82 C 1413.25 925.043 1413.84 965.573 1412.47 971.792 C 1412.21 971.394 1412.09 970.676 1411.97 970.192 C 1410.49 964.767 1410.04 943.627 1410.21 937.406 C 1410.01 931.007 1409.9 924.281 1410.28 917.903 z" fill="rgb(69,98,19)" transform="translate(0,0)"></path>
<path d="M 1410.28 917.903 C 1411.44 917.057 1411.45 917 1412.64 917.82 C 1411.76 926.966 1412.38 936.914 1411.5 946.112 L 1411.54 946.062 C 1411.23 945.142 1410.82 939.676 1410.21 937.406 C 1410.01 931.007 1409.9 924.281 1410.28 917.903 z" fill="rgb(11,13,16)" transform="translate(0,0)"></path>
<path d="M 1406.74 918.533 C 1407.79 918.469 1409.22 918.119 1410.28 917.903 C 1409.9 924.281 1410.01 931.007 1410.21 937.406 C 1410.04 943.627 1410.49 964.767 1411.97 970.192 L 1409.59 973.905 C 1408.83 965.871 1408.28 957.819 1407.95 949.756 C 1407.97 943.437 1408.03 937.23 1407.11 930.972 C 1407.24 926.75 1406.99 922.741 1406.74 918.533 z" fill="rgb(193,212,62)" transform="translate(0,0)"></path>
<path d="M 1410.38 881.03 C 1412.86 879.366 1413 880.613 1412.71 883.455 C 1411.8 892.507 1416.25 901.154 1409.46 908.002 C 1408.59 901.554 1408.53 887.278 1410.38 881.03 z" fill="rgb(11,13,16)" transform="translate(0,0)"></path>
<path d="M 1406.95 881.808 L 1410.38 881.03 C 1408.53 887.278 1408.59 901.554 1409.46 908.002 C 1406.48 907.359 1407.23 909.49 1406.15 912.71 C 1406.13 902.978 1405.52 891.294 1406.95 881.808 z" fill="rgb(193,212,62)" transform="translate(0,0)"></path>
<path d="M 650.246 906.486 C 645.075 865.674 648.01 859.851 688.9 859.61 L 688.711 923.249 C 688.862 942.014 688.917 960.778 688.877 979.543 C 688.875 987.311 689.175 1005.89 688.16 1013.09 C 688.163 1031.53 688.003 1049.98 687.683 1068.43 C 687.628 1075.23 687.903 1088.78 687.179 1095.04 C 687.574 1113.2 687.656 1136.99 686.927 1155.12 C 679.79 1155.11 667.994 1155.3 660.877 1154.31 C 641.977 1151.68 650.955 1119.21 648.852 1106.45 C 648.688 1105.45 649.579 1103.08 650.1 1102.1 C 649.898 1101.44 649.614 1100.38 649.308 1099.74 C 647.744 1079.12 648.524 1055.95 647.981 1035.1 C 648.138 1030.06 648.601 1027.08 649.146 1022.12 C 648.594 1016.86 648.336 1014.15 651.218 1009.95 C 650.128 990.313 649.49 978.805 651.056 959.219 C 649.535 957.072 649.106 956.883 649.163 954.279 C 649.037 948.802 648.667 915.753 649.76 912.182 L 649.967 910.657 C 650.215 908.837 650.387 908.268 650.246 906.486 z" fill="rgb(11,13,16)" transform="translate(0,0)"></path>
<path d="M 650.246 906.486 C 652.168 905.8 656.038 903.514 655.94 906.951 C 655.597 918.947 654.956 931.114 653.335 943.011 C 652.63 948.64 652.465 953.547 651.056 959.219 C 649.535 957.072 649.106 956.883 649.163 954.279 C 649.037 948.802 648.667 915.753 649.76 912.182 L 649.967 910.657 C 650.215 908.837 650.387 908.268 650.246 906.486 z" fill="rgb(193,212,62)" transform="translate(0,0)"></path>
<path d="M 649.967 910.657 C 651.603 910.326 653.369 909.548 653.318 911.895 C 653.13 920.517 652.256 929.018 651.743 937.626 C 651.759 942.834 651.205 949.48 649.163 954.279 C 649.037 948.802 648.667 915.753 649.76 912.182 L 649.967 910.657 z" fill="rgb(11,13,16)" transform="translate(0,0)"></path>
<path d="M 649.163 954.279 C 649.037 948.802 648.667 915.753 649.76 912.182 C 650.197 916.529 648.932 937.333 651.743 937.626 C 651.759 942.834 651.205 949.48 649.163 954.279 z" fill="rgb(53,71,17)" transform="translate(0,0)"></path>
<path d="M 647.981 1035.1 L 649.898 1035.53 C 650.483 1048.93 651.373 1060.7 651.089 1074.37 L 651.654 1076.14 C 652.235 1077.99 652.336 1079.29 653.443 1080.91 L 654.077 1081.59 C 654.055 1087.08 655.861 1100.34 650.1 1102.1 C 649.898 1101.44 649.614 1100.38 649.308 1099.74 C 647.744 1079.12 648.524 1055.95 647.981 1035.1 z" fill="rgb(11,13,16)" transform="translate(0,0)"></path>
<path d="M 651.089 1074.37 L 651.654 1076.14 C 652.235 1077.99 652.336 1079.29 653.443 1080.91 L 654.077 1081.59 C 654.055 1087.08 655.861 1100.34 650.1 1102.1 C 649.898 1101.44 649.614 1100.38 649.308 1099.74 C 652.505 1099.13 650.939 1078.59 651.089 1074.37 z" fill="rgb(104,128,29)" transform="translate(0,0)"></path>
<path d="M 651.218 1009.95 C 653.212 1021.64 653.814 1063 653.9 1076.71 C 653.866 1078.27 653.669 1079.34 653.443 1080.91 C 652.336 1079.29 652.235 1077.99 651.654 1076.14 L 651.089 1074.37 C 651.373 1060.7 650.483 1048.93 649.898 1035.53 L 647.981 1035.1 C 648.138 1030.06 648.601 1027.08 649.146 1022.12 C 648.594 1016.86 648.336 1014.15 651.218 1009.95 z" fill="rgb(157,175,52)" transform="translate(0,0)"></path>
<path d="M 649.146 1022.12 C 649.828 1027.14 649.96 1030.49 649.898 1035.53 L 647.981 1035.1 C 648.138 1030.06 648.601 1027.08 649.146 1022.12 z" fill="rgb(69,98,19)" transform="translate(0,0)"></path>
<path d="M 627.973 915.65 C 629.367 915.494 630.764 915.357 632.163 915.242 C 635.253 918.085 634.187 938.196 634.194 943.541 C 634.554 972.184 634.389 1000.83 633.699 1029.47 C 633.567 1037.52 633.619 1060.21 632.228 1066.48 L 631.518 1072.19 C 630.768 1074.27 630.956 1074.79 630.941 1077.1 L 630.925 1078.14 C 630.748 1079.8 630.527 1081.44 630.263 1083.08 C 629.719 1089.19 629.165 1095.15 628.946 1101.28 C 608.509 1099.45 603.915 1104.15 603.858 1083.11 L 603.694 1078.01 C 602.851 1059.48 602.016 1036.78 602.416 1018.47 C 602.667 1006.98 607.542 994.442 606.954 980.456 C 606.581 980.126 605.279 979.024 605.218 978.72 C 603.326 969.262 603.846 940.727 604.868 932.55 C 604.537 915.048 613.438 916.127 627.973 915.65 z" fill="rgb(11,13,16)" transform="translate(0,0)"></path>
<path d="M 603.858 1083.11 C 612.658 1082.89 621.463 1082.88 630.263 1083.08 C 629.719 1089.19 629.165 1095.15 628.946 1101.28 C 608.509 1099.45 603.915 1104.15 603.858 1083.11 z" fill="rgb(11,13,16)" transform="translate(0,0)"></path>
<path d="M 603.694 1078.01 C 612.844 1078.15 621.82 1078.07 630.925 1078.14 C 630.748 1079.8 630.527 1081.44 630.263 1083.08 C 621.463 1082.88 612.658 1082.89 603.858 1083.11 L 603.694 1078.01 z" fill="rgb(66,60,68)" transform="translate(0,0)"></path>
<path d="M 627.973 915.65 C 629.367 915.494 630.764 915.357 632.163 915.242 C 628.13 917.604 629.897 941.323 631.489 945.937 C 631.513 948.338 630.372 948.071 628.077 949.134 L 627.957 947.781 L 628.106 942.435 C 628.145 933.506 628.1 924.578 627.973 915.65 z" fill="rgb(61,60,54)" transform="translate(0,0)"></path>
<path d="M 1427.71 914.653 C 1453.1 914.517 1455.47 915.518 1455.19 941.814 L 1455.02 948.34 C 1454.92 961.02 1453.81 977.96 1454.08 989.742 L 1455.12 990.566 C 1458.31 992.947 1458.29 1022.42 1456.14 1027.45 C 1455.81 1028.24 1452.81 1029.22 1452.1 1029.5 C 1450.51 1033.41 1449.39 1034 1450.34 1037.12 C 1453.15 1038.21 1453.23 1038.12 1456.28 1038.4 C 1457.16 1044.04 1457.03 1087.77 1456.25 1093.46 C 1453.94 1102.33 1437.7 1100.77 1430.87 1099.63 L 1428.74 1100.71 C 1423.63 1095.42 1425.98 1069.21 1425.99 1060.2 C 1426.19 1055.06 1427.11 1052.16 1427.27 1046.99 C 1426.7 1043.98 1426.74 1043.09 1428.01 1040.35 L 1428.72 1038.78 C 1429.97 1018.31 1427.28 985.699 1427.83 962.194 C 1426.93 954.902 1426.88 921.483 1427.71 914.653 z" fill="rgb(11,13,16)" transform="translate(0,0)"></path>
<path d="M 1431.07 1081.4 C 1433.96 1082.11 1452.06 1082.4 1454.26 1081.45 L 1455.46 1081.57 C 1455.96 1083.4 1456.01 1090.69 1456.25 1093.46 C 1453.94 1102.33 1437.7 1100.77 1430.87 1099.63 C 1431.16 1093.39 1430.74 1087.41 1431.07 1081.4 z" fill="rgb(11,13,16)" transform="translate(0,0)"></path>
<path d="M 1427.27 1046.99 C 1426.7 1043.98 1426.74 1043.09 1428.01 1040.35 L 1428.72 1038.78 C 1430.47 1052.73 1430.36 1065.99 1430.79 1080.06 L 1431.07 1081.4 C 1430.74 1087.41 1431.16 1093.39 1430.87 1099.63 L 1428.74 1100.71 C 1423.63 1095.42 1425.98 1069.21 1425.99 1060.2 C 1426.19 1055.06 1427.11 1052.16 1427.27 1046.99 z" fill="rgb(193,212,62)" transform="translate(0,0)"></path>
<path d="M 1425.99 1060.2 L 1427.99 1063.44 C 1427.96 1072.84 1429.24 1093.3 1428.74 1100.71 C 1423.63 1095.42 1425.98 1069.21 1425.99 1060.2 z" fill="rgb(11,13,16)" transform="translate(0,0)"></path>
<path d="M 1427.27 1046.99 C 1427.68 1052.66 1427.99 1057.73 1427.99 1063.44 L 1425.99 1060.2 C 1426.19 1055.06 1427.11 1052.16 1427.27 1046.99 z" fill="rgb(53,71,17)" transform="translate(0,0)"></path>
<path d="M 1454.08 989.742 L 1455.12 990.566 C 1458.31 992.947 1458.29 1022.42 1456.14 1027.45 C 1455.81 1028.24 1452.81 1029.22 1452.1 1029.5 C 1453.84 1017.46 1452.97 1002.47 1454.08 989.742 z" fill="rgb(193,212,62)" transform="translate(0,0)"></path>
<path d="M 1456.28 1038.4 C 1457.16 1044.04 1457.03 1087.77 1456.25 1093.46 C 1456.01 1090.69 1455.96 1083.4 1455.46 1081.57 L 1454.26 1081.45 C 1452.06 1082.4 1433.96 1082.11 1431.07 1081.4 L 1430.79 1080.06 C 1439.05 1079.8 1447.55 1079.96 1455.84 1079.92 C 1455.88 1069.54 1455.21 1047.91 1456.28 1038.4 z" fill="rgb(61,60,54)" transform="translate(0,0)"></path>
<path d="M 580.931 985.291 C 582.391 985.206 589.579 984.63 589.598 985.626 C 589.777 994.951 589.736 1016.32 589.422 1024.26 C 581.767 1024.04 575.912 1023.97 568.245 1023.18 C 564.466 1022.94 558.793 1023.44 558.062 1018 C 555.275 997.274 558.748 989.551 580.931 985.291 z" fill="rgb(11,13,16)" transform="translate(0,0)"></path>
<path d="M 1473 992.076 C 1477.48 992.115 1489.48 991.754 1492.99 993.867 C 1501.22 998.826 1497.52 1015.83 1494.28 1022.32 C 1488.31 1024.45 1481.35 1024.37 1474.74 1024.96 C 1473.88 1017.21 1472.84 999.575 1473 992.076 z" fill="rgb(11,13,16)" transform="translate(0,0)"></path>
<path d="M 1294.88 1193.33 C 1286.78 1185.37 1289.16 1155.81 1289.12 1143.54 C 1288.96 1121.76 1289.06 1099.97 1289.42 1078.19 C 1289.56 1069.92 1289.06 1050.32 1290.45 1043.05 L 1292.02 1042.13 C 1293.45 1049.86 1293.14 1074.69 1293.2 1083.69 L 1293.85 1159.39 C 1293.89 1166.1 1293.58 1187.53 1294.88 1193.33 z" fill="rgb(11,13,16)" transform="translate(0,0)"></path>
<path d="M 699.827 1019.98 C 700.051 1027.86 701.072 1043.38 700.768 1050.18 C 701.426 1075.35 701.877 1100.53 702.122 1125.71 C 702.294 1135.5 703.237 1147.73 702.878 1157.24 L 699.394 1155.54 C 696.751 1149.62 698.011 1120.83 698.158 1112.38 C 697.019 1090.52 698.033 1058.88 698.103 1036.35 C 699.383 1029.52 699.205 1026.45 699.827 1019.98 z" fill="rgb(11,13,16)" transform="translate(0,0)"></path>
<path d="M 699.377 1176.62 L 701.059 1174.28 C 703.371 1181.88 703.594 1183.74 707.569 1190.61 L 709.446 1192.84 C 710.139 1193.33 710.12 1193.42 710.655 1194.17 L 712.911 1196.44 C 713.596 1196.89 713.585 1196.79 713.949 1197.36 C 731.5 1207.79 750.367 1206.96 762.343 1189.89 C 762.716 1189.51 763.089 1189.14 763.462 1188.76 C 754.788 1213.77 720.458 1213.77 706.448 1193.02 L 705.788 1192.03 C 702.952 1187.28 702.19 1185.04 700.474 1179.88 L 699.377 1176.62 z" fill="rgb(11,13,16)" transform="translate(0,0)"></path>
<path d="M 631.518 1072.19 C 633.596 1077.31 633.547 1070.41 634.572 1069.42 C 634.674 1069.44 634.777 1069.45 634.88 1069.46 C 636.923 1072.07 636.67 1082.7 636.297 1086 C 635.576 1092.38 638.582 1102.79 628.946 1101.28 C 629.165 1095.15 629.719 1089.19 630.263 1083.08 C 630.527 1081.44 630.748 1079.8 630.925 1078.14 L 630.941 1077.1 C 630.956 1074.79 630.768 1074.27 631.518 1072.19 z" fill="rgb(193,212,62)" transform="translate(0,0)"></path>
<path d="M 1367.11 843.697 C 1368.04 839.745 1377.14 843.031 1380.51 841.731 C 1380.46 841.75 1386.92 841.407 1386.57 842.775 C 1385.97 843.132 1385.27 842.92 1384.87 843.551 C 1384.93 844.158 1385.18 844.837 1385.08 845.403 C 1384.43 845.691 1383.61 845.546 1382.91 845.564 C 1379.57 845.798 1365.33 848.246 1367.11 843.697 z" fill="url(#Gradient1)" transform="translate(0,0)"></path>
<path d="M 1367.11 843.697 C 1373.34 844.12 1378.61 842.86 1382.91 845.564 C 1379.57 845.798 1365.33 848.246 1367.11 843.697 z" fill="rgb(104,128,29)" transform="translate(0,0)"></path>
<path d="M 767.536 1040.5 C 771.247 1044.03 768.649 1070.96 766.513 1076.25 C 766.355 1069.87 766.568 1045.71 767.536 1040.5 z" fill="rgb(104,128,29)" transform="translate(0,0)"></path>
<path d="M 699.247 1004.2 C 700.408 1007.29 700.136 1016.67 699.827 1019.98 C 699.205 1026.45 699.383 1029.52 698.103 1036.35 C 697.731 1023.36 698.359 1017.89 699.15 1005.84 L 699.247 1004.2 z" fill="rgb(69,98,19)" transform="translate(0,0)"></path>
<path d="M 1374.99 1163.51 C 1378.46 1162.22 1385.73 1162.78 1389.29 1163.63 C 1386.05 1164.84 1377.14 1166.52 1374.99 1163.51 z" fill="rgb(157,175,52)" transform="translate(0,0)"></path>
<path d="M 698.977 1167.91 C 700.368 1171.03 700.545 1171.02 701.059 1174.28 L 699.377 1176.62 C 698.914 1172.99 698.939 1171.57 698.977 1167.91 z" fill="rgb(69,98,19)" transform="translate(0,0)"></path>
<path d="M 1392.92 579.873 C 1401.74 587.209 1413.75 598.903 1422.57 607.014 C 1423.5 607.865 1424.45 608.703 1425.42 609.525 C 1430.32 614.05 1432.12 614.428 1426.42 617.605 C 1424.53 618.386 1422.62 619.089 1420.86 620.121 C 1404.33 627.481 1388.4 635.608 1371.7 642.561 C 1370.86 642.851 1370.01 643.141 1369.17 643.43 C 1368 640.094 1366.72 636.333 1366.27 632.84 L 1365.82 632.376 C 1368.91 623.119 1387.26 589.912 1392.92 579.873 z" fill="rgb(245,247,250)" transform="translate(0,0)"></path>
<path d="M 1366.27 632.84 C 1369.5 636.289 1369.01 640.34 1371.7 642.561 C 1370.86 642.851 1370.01 643.141 1369.17 643.43 C 1368 640.094 1366.72 636.333 1366.27 632.84 z" fill="rgb(111,111,103)" transform="translate(0,0)"></path>
<path d="M 1221.71 685.172 L 1222.75 688.075 C 1214.76 693.456 1162.37 731.767 1159.98 736.277 L 1162.91 736.595 C 1163.85 740.718 1157.28 744.847 1154.07 747.18 L 1148.79 751.239 C 1144.81 754.633 1140.84 758.048 1136.89 761.485 C 1137.56 763.343 1137.72 763.343 1136.44 765.08 C 1127.19 777.791 1111.9 792.39 1103.96 804.538 L 1100.52 809.893 C 1098.45 810.519 1095.53 807.805 1091.96 806.794 C 1096.45 798.56 1103.52 788.995 1109.41 781.68 C 1111.74 778.61 1112.08 778.369 1115.04 775.802 C 1117.46 773.408 1121.54 767.604 1124.12 764.514 C 1131.14 756.007 1138.82 748.068 1147.09 740.77 L 1150.91 737.146 L 1155.49 733.428 L 1154.99 731.633 C 1152.65 733.087 1152.02 733.889 1149.45 734.263 C 1137.34 739.184 1133.17 752.397 1119.31 762.345 C 1126.86 747.841 1140.92 734.887 1152.26 722.934 L 1152.75 723.127 C 1155.16 723.491 1155.27 723.823 1156.38 721.704 C 1162.38 716.806 1173.23 707.359 1179.88 704.226 L 1184.04 705.338 C 1182.65 706.771 1181.75 708.022 1180.53 709.589 C 1181.67 709.623 1189.39 703.91 1192.22 702.747 C 1201.15 699.393 1213.56 690.803 1221.71 685.172 z" fill="rgb(198,255,0)" transform="translate(0,0)"></path>
<path d="M 1154.99 731.633 C 1158.92 726.976 1163.66 722.989 1168.63 719.503 C 1163.8 725.317 1161.43 728.536 1155.49 733.428 L 1154.99 731.633 z" fill="rgb(69,98,19)" transform="translate(0,0)"></path>
<path d="M 1126.99 768.5 C 1130.61 765.575 1132.93 763.923 1136.89 761.485 C 1137.56 763.343 1137.72 763.343 1136.44 765.08 C 1132.49 765.746 1131.35 767.599 1128 769.987 L 1126.99 768.5 z" fill="rgb(104,128,29)" transform="translate(0,0)"></path>
<path d="M 1126.99 768.5 L 1128 769.987 C 1124.79 772.578 1122.96 775.413 1119.07 776.647 C 1120.71 773.033 1122.14 772.127 1125.37 769.747 L 1126.99 768.5 z" fill="rgb(11,13,16)" transform="translate(0,0)"></path>
<path d="M 1289.93 641.512 C 1303.77 639.746 1339.85 633.878 1350.43 643.967 C 1346.4 644.675 1338.75 645.792 1335.12 646.969 L 1332.56 647.67 C 1316.51 650.394 1305.64 652.58 1289.85 657.56 L 1286.88 658.103 L 1264.41 665.931 C 1258.68 668.536 1253.78 670.715 1248.06 673.471 C 1245.1 674.458 1241.59 676.746 1238.96 678.452 C 1233.79 680.86 1227.39 684.8 1222.75 688.075 L 1221.71 685.172 C 1213.56 690.803 1201.15 699.393 1192.22 702.747 C 1192.11 701.51 1192.02 700.271 1191.94 699.032 L 1192.6 698.991 C 1197.11 692.128 1211.05 683.596 1218.32 678.436 C 1218.72 678.281 1223.12 675.309 1223.78 674.868 C 1234.91 667.375 1243.9 663.593 1256.24 658.597 C 1263.66 655.595 1279.23 650.645 1284.72 646.614 C 1284.57 644.737 1284.58 644.188 1284.7 642.3 L 1289.93 641.512 z" fill="rgb(198,255,0)" transform="translate(0,0)"></path>
<path d="M 1242.86 672.54 C 1247.07 669.343 1257.41 663.225 1262.73 665.304 L 1264.41 665.931 C 1258.68 668.536 1253.78 670.715 1248.06 673.471 C 1245.1 674.458 1241.59 676.746 1238.96 678.452 C 1233.79 680.86 1227.39 684.8 1222.75 688.075 L 1221.71 685.172 C 1225.39 682.595 1242.26 674.681 1242.86 672.54 z" fill="rgb(193,212,62)" transform="translate(0,0)"></path>
<path d="M 1192.6 698.991 C 1198.29 700.4 1204.03 693.922 1209.05 691.129 C 1218.78 685.725 1232.36 675.875 1242.86 672.54 C 1242.26 674.681 1225.39 682.595 1221.71 685.172 C 1213.56 690.803 1201.15 699.393 1192.22 702.747 C 1192.11 701.51 1192.02 700.271 1191.94 699.032 L 1192.6 698.991 z" fill="rgb(104,128,29)" transform="translate(0,0)"></path>
<path d="M 1290.72 649.341 C 1294.53 647.765 1309.55 641.852 1313.23 643.426 C 1313.67 644.826 1306.57 645.908 1305.52 646.191 C 1300.8 647.457 1296.19 648.919 1291.46 650.139 L 1290.72 649.341 z" fill="rgb(104,128,29)" transform="translate(0,0)"></path>
<path d="M 1290.72 649.341 L 1291.46 650.139 C 1290.61 650.605 1289.99 651.248 1289.04 650.806 C 1288.86 649.892 1290.11 649.746 1290.72 649.341 z" fill="rgb(193,212,62)" transform="translate(0,0)"></path>
<path d="M 1291.1 797.921 C 1300.53 792.258 1311.29 789.214 1322.31 790.355 L 1317.15 792.806 C 1314.72 794.329 1312.25 794.418 1309.53 795.148 C 1293.3 799.496 1278.57 811.425 1276.82 828.993 C 1275.46 842.669 1275.8 856.499 1276.28 870.166 C 1276.99 882.04 1276.37 887.052 1275.89 898.611 C 1276.8 903.741 1277.13 912.578 1273.9 916.879 C 1271.19 904.067 1270.64 848.142 1271.14 832.081 C 1271.26 828.45 1273.44 821.567 1274.64 817.899 L 1277.65 812.273 C 1279.99 809.002 1282.95 805.641 1285.56 802.536 L 1291.1 797.921 z" fill="rgb(193,212,62)" transform="translate(0,0)"></path>
<path d="M 1274.07 870.131 C 1273.46 859.93 1271.7 835.633 1274.1 826.506 C 1277.38 814.384 1285.41 804.098 1296.38 797.978 C 1301.63 795.012 1311.12 791.132 1317.15 792.806 C 1314.72 794.329 1312.25 794.418 1309.53 795.148 C 1293.3 799.496 1278.57 811.425 1276.82 828.993 C 1275.46 842.669 1275.8 856.499 1276.28 870.166 L 1274.07 870.131 z" fill="rgb(11,13,16)" transform="translate(0,0)"></path>
<path d="M 1274.07 870.131 L 1276.28 870.166 C 1276.99 882.04 1276.37 887.052 1275.89 898.611 C 1273.98 891.422 1273.61 877.731 1274.07 870.131 z" fill="rgb(53,71,17)" transform="translate(0,0)"></path>
<path d="M 1471.09 1039.46 C 1472.27 1039.42 1473.37 1039.41 1474.55 1039.28 C 1475.38 1045.79 1475.01 1071.39 1474.89 1079.44 C 1474.92 1081.3 1474.96 1083.15 1475.03 1085 C 1475.48 1105.67 1471.08 1116.61 1448.51 1117.77 C 1442.81 1118.06 1439.79 1116.96 1434.91 1116.74 L 1434.47 1116.46 C 1433.99 1116.48 1433.51 1116.5 1433.03 1116.52 C 1433.63 1116.58 1434.32 1116.52 1434.95 1116.49 C 1446.82 1115.32 1462.7 1117.67 1469.48 1105.78 C 1470.56 1103.87 1473.14 1097.44 1472.81 1095.49 C 1470.36 1080.68 1474.37 1052.69 1471.09 1039.46 z" fill="rgb(193,212,62)" transform="translate(0,0)"></path>
<path d="M 1217.44 668.203 C 1233.71 657.958 1249.47 651.298 1268.02 646.069 L 1268.81 647.553 C 1263.08 652.654 1233.43 666.441 1227 667.123 L 1217.44 668.203 z" fill="rgb(198,255,0)" transform="translate(0,0)"></path>
<path d="M 1082.75 821.124 C 1084.65 817.989 1089.74 809.333 1091.96 806.794 C 1095.53 807.805 1098.45 810.519 1100.52 809.893 C 1098.86 813.162 1096.57 816.69 1094.73 819.908 L 1091.25 826.026 C 1096.42 820.459 1102.05 810.9 1105.8 807.604 C 1105.97 807.683 1106.14 807.763 1106.31 807.842 C 1106.55 809.618 1101.44 816.752 1100.2 818.803 C 1099.14 820.064 1098.81 820.712 1097.86 822.151 L 1097.03 823.389 C 1094.29 826.728 1091.73 830.707 1088.94 833.712 C 1088.1 834.624 1088.97 830.546 1088.84 831.023 C 1089.83 827.387 1089.13 826.136 1086.9 823.072 L 1087.37 821.411 L 1086.45 819.816 C 1085.75 820.677 1085.06 821.55 1084.38 822.434 L 1082.75 821.124 z" fill="rgb(193,212,62)" transform="translate(0,0)"></path>
<path d="M 1086.45 819.816 C 1087.82 816.984 1091.52 811.447 1093.84 809.218 C 1093.96 809.257 1094.09 809.296 1094.21 809.335 C 1095.3 810.197 1088.11 820.399 1087.37 821.411 L 1086.45 819.816 z" fill="rgb(53,71,17)" transform="translate(0,0)"></path>
<path d="M 1474.11 973.766 C 1495.12 975.743 1515.77 970.524 1511.32 1002.12 L 1511.13 1003.47 C 1510.69 998.334 1510.95 996.364 1509.59 991.448 C 1504.68 981.836 1503.28 980.71 1493.81 978.007 C 1487.16 978.466 1481.78 978.883 1475.13 978.161 L 1475.09 976.629 C 1474.78 975.353 1474.78 974.867 1474.11 973.766 z" fill="rgb(157,175,52)" transform="translate(0,0)"></path>
<path d="M 1475.09 976.629 C 1479.31 975.724 1484.04 975.954 1488.38 976.111 L 1491.31 976.312 C 1500.95 977.051 1509.1 980.284 1509.59 991.448 C 1504.68 981.836 1503.28 980.71 1493.81 978.007 C 1487.16 978.466 1481.78 978.883 1475.13 978.161 L 1475.09 976.629 z" fill="rgb(11,13,16)" transform="translate(0,0)"></path>
<path d="M 1332.56 647.67 L 1335.12 646.969 C 1335.48 654.403 1334.27 658.767 1339.98 664.479 C 1353.1 677.607 1370.89 653.042 1358.84 648.659 C 1361.56 647.619 1361.71 647.573 1364.54 647.116 C 1365.71 656.121 1364.95 658.299 1360.43 665.847 C 1359.73 666.373 1359.02 666.899 1358.32 667.425 C 1355.92 669.649 1353.93 670.15 1351.04 671.576 C 1347.87 671.059 1344.72 670.808 1341.81 669.315 L 1340.12 668.425 C 1339.74 668.236 1339.36 668.046 1338.98 667.857 L 1338.26 667.048 C 1331.54 659.646 1332.82 657.725 1332.56 647.67 z" fill="rgb(193,212,62)" transform="translate(0,0)"></path>
<path d="M 1365.82 632.376 L 1366.27 632.84 C 1366.72 636.333 1368 640.094 1369.17 643.43 C 1367.47 644.904 1365.91 645.649 1364.54 647.116 C 1361.71 647.573 1361.56 647.619 1358.84 648.659 C 1356.94 648.496 1356.64 648.626 1355.13 647.989 C 1356.81 645.25 1363.82 633.955 1365.82 632.376 z" fill="rgb(243,243,165)" transform="translate(0,0)"></path>
<path d="M 1423.14 577.456 C 1424.51 577.284 1426.69 576.768 1428.06 577.221 C 1428.33 577.547 1428.28 577.373 1428.29 577.711 C 1428.15 577.91 1428.01 578.109 1427.87 578.308 C 1425.78 585.922 1424.93 602.167 1425.42 609.525 C 1424.45 608.703 1423.5 607.865 1422.57 607.014 C 1422.75 598.177 1423.51 586.097 1423.14 577.456 z" fill="rgb(66,60,68)" transform="translate(0,0)"></path>
<path d="M 1405.7 558.761 C 1406.55 566.491 1406.68 567.312 1410.75 573.716 C 1408.32 573.719 1398.94 574.219 1399.58 570.024 C 1400.25 565.676 1402.14 561.445 1405.7 558.761 z" fill="rgb(61,60,54)" transform="translate(0,0)"></path>
<path d="M 1153.74 720.772 C 1157.83 716.868 1169.44 698.44 1175.15 698.305 C 1176.77 700.066 1171.17 704.262 1170.18 705.211 C 1164.89 710.283 1159.99 715.263 1156.38 721.704 C 1155.27 723.823 1155.16 723.491 1152.75 723.127 L 1153.74 720.772 z" fill="rgb(193,212,62)" transform="translate(0,0)"></path>
<path d="M 1284.7 642.3 C 1284.58 644.188 1284.57 644.737 1284.72 646.614 C 1278.5 645.464 1274.99 646.119 1268.81 647.553 L 1268.02 646.069 C 1274.56 644.088 1278.06 643.337 1284.7 642.3 z" fill="rgb(193,212,62)" transform="translate(0,0)"></path>
<path d="M 1189.5 698.683 C 1188.73 701.784 1186.54 703.017 1184.04 705.338 L 1179.88 704.226 C 1183.24 702.064 1185.89 700.438 1189.5 698.683 z" fill="rgb(193,212,62)" transform="translate(0,0)"></path>
<path d="M 1082.75 821.124 L 1084.38 822.434 C 1082.89 824.541 1082.88 824.552 1081.08 826.259 C 1081.27 823.617 1081.15 823.308 1081.97 820.998 L 1082.75 821.124 z" fill="rgb(157,175,52)" transform="translate(0,0)"></path>
<path d="M 1074.96 850.553 C 1075.11 850.623 1077.06 851.386 1076.78 851.996 C 1067.22 872.495 1055.22 896.786 1042.13 915.226 C 1042.05 915.26 1041.27 915.661 1041.15 915.363 C 1040.41 907.492 1051.47 892.411 1055.27 885.596 C 1060.8 875.656 1067.56 857.472 1074.96 850.553 z" fill="rgb(198,255,0)" transform="translate(0,0)"></path>
<path d="M 1083.37 828.405 C 1081.12 836.133 1060.59 865.446 1054.86 874.717 L 1053.7 872.634 C 1057.98 865.217 1060.38 859.962 1065.78 853.135 C 1072.42 844.221 1075.43 836.69 1083.37 828.405 z" fill="rgb(193,212,62)" transform="translate(0,0)"></path>
<path d="M 1109.62 770.85 C 1112.71 774.116 1081.75 808.979 1077.11 813.549 C 1076.89 813.387 1076.4 813.054 1076.52 812.887 C 1082.97 804.251 1103.65 776.964 1109.62 770.85 z" fill="rgb(157,175,52)" transform="translate(0,0)"></path>
<path d="M 1075.69 832.137 C 1075.47 836.869 1067.47 847.195 1064.32 850.389 C 1064.21 845.293 1072.39 836.028 1075.69 832.137 z" fill="rgb(157,175,52)" transform="translate(0,0)"></path>
<path d="M 1054.86 874.717 C 1054.37 875.676 1052.84 878.989 1051.51 879.286 C 1050.23 878.225 1053.15 873.665 1053.7 872.634 L 1054.86 874.717 z" fill="rgb(137,146,49)" transform="translate(0,0)"></path>
<path d="M 353.76 495.155 C 384.688 498.401 415.638 501.429 446.608 504.239 C 456.926 505.181 483.02 508.152 492.687 507.914 C 493.825 507.965 497.069 508.028 497.994 508.248 C 535.69 513.994 587.13 515.909 626.806 520.025 C 628.849 519.99 631.06 519.679 632.802 520.371 C 659.019 523.177 685.257 525.778 711.514 528.174 C 718.063 528.832 747.396 532.203 752.557 531.809 C 756.475 532.133 760.392 532.476 764.307 532.838 C 787.344 536.366 816.923 537.66 840.602 540.341 C 851.837 541.613 884.356 545.11 893.851 544.933 C 894.99 545.001 898.158 545.104 899.077 545.364 C 913.4 546.971 1018.59 555.557 1021.64 557.488 C 1022.27 561.038 1022.25 561.323 1022.16 564.734 C 1024.05 579.361 1023.11 627.321 1023.13 644.457 L 1023.17 703.902 C 1023.16 713.387 1023.54 728.318 1022.82 737.398 L 1022.83 789.845 C 1024.37 824.745 1022.46 863.473 1023.09 898.888 C 1023.27 908.761 1023.48 949.268 1022.15 955.913 C 1022.14 963.766 1022.27 971.996 1022.09 979.811 C 1014.37 979.794 987.777 979.26 981.449 980.8 C 961.377 981.021 941.303 981.14 921.229 981.157 C 906.196 982.439 883.827 981.833 868.248 981.66 C 861.353 981.9 852.433 981.948 845.715 982.542 L 780.001 982.846 C 779.73 975.889 779.78 969.292 779.835 962.33 C 779.194 957.609 779.2 947.969 779.069 942.837 C 779.23 929.268 778.567 909.722 778.23 896.035 C 777.735 875.924 782.911 835.874 777.395 818.763 L 773.64 810.849 L 769.016 805.006 L 766.563 806.179 C 758.325 797.824 752.009 794.531 740.001 793.069 C 734.9 792.448 722.62 793.062 718.813 797.046 C 714.586 799.44 709.747 800.402 705.121 801.738 L 699.872 805.476 C 698.883 806.402 696.165 808.818 695.459 809.732 L 692.616 812.95 C 686.128 824.167 686.026 829.649 685.453 842.277 C 681.454 842.027 665.937 843.357 662.071 843.974 L 662.848 845.806 L 659.118 846.117 C 648.585 845.646 637.325 852.989 637.241 864.143 C 637.258 866.079 636.507 866.131 635.087 867.354 C 634.941 873.214 634.729 879.12 634.861 884.976 C 635.459 891.023 634.97 895.947 635.543 902.238 C 622.746 903.868 609.606 898.252 598.699 911.74 C 595.032 916.273 594.196 920.537 592.588 925.936 C 592.022 928.937 591.693 930.576 590.892 933.483 C 590.965 935.688 590.808 935.602 589.051 936.936 L 588.876 949.224 C 589.021 953.034 589.056 958.392 589.652 962.025 C 590.725 964.855 589.955 968.019 590.1 971.212 C 585.731 976.257 552.335 967.571 545.5 994.127 C 545.315 995.218 545.175 996.445 544.773 997.495 C 542.507 1003.41 545.025 1010.26 543.916 1015.97 C 545.249 1024.42 545.322 1027.81 550.249 1034.46 C 554.913 1034.94 562.127 1035.64 566.629 1036.46 C 573.689 1037.75 582.746 1037.13 589.149 1038.34 L 588.28 1053.22 C 587.025 1061.96 586.655 1071.24 585.88 1080.21 C 585.837 1081.57 585.783 1082.93 585.72 1084.29 C 586.208 1086.08 586.602 1086.28 587.773 1087.84 C 586.806 1092.64 587.882 1095.84 590.495 1099.73 L 589.693 1101.29 C 601.2 1115.25 609.941 1116.02 627.345 1114.57 C 630.996 1113.35 630.999 1112.6 633.775 1113.67 C 634.301 1119.01 634.58 1141.52 633.831 1146.54 C 641.854 1172.04 664.917 1169.11 686.437 1168.34 C 688.31 1178.62 689.672 1188.56 694.834 1197.85 C 707.454 1220.55 736.647 1226.96 758.697 1214.02 C 759.382 1213.25 762.836 1211.05 763.903 1210.32 C 781.825 1193.73 777.323 1169.12 777.163 1146.63 L 777.096 1082.26 C 777.03 1072.2 776.416 1048.28 777.801 1039.23 L 794.279 1039.38 C 812.645 1039.26 831.011 1039.48 849.368 1040.05 C 851.046 1040.04 852.321 1040.06 853.986 1040.14 C 861.084 1039.38 862.287 1037.61 865.505 1043.18 C 871.901 1043.06 882.529 1043.18 888.588 1042.57 C 891.95 1042.22 896.66 1042.14 900.146 1041.97 C 910.599 1040.42 929.838 1041.1 941.023 1040.95 C 967.996 1040.6 995.276 1041.25 1022.26 1040.53 L 1022.15 1056.61 C 1023 1063.45 1023.15 1064.65 1022.28 1071.56 C 1024.27 1098.49 1023.03 1138.85 1022.98 1166.63 L 1023.24 1317.68 L 1023.15 1413.18 C 1023.16 1422.89 1023.78 1452.81 1022.74 1460.64 C 983.55 1462.82 936.019 1470.1 896.073 1474.15 L 891.287 1474.89 C 880.854 1475.66 870.144 1476.92 859.747 1478.21 C 827.792 1482.18 795.441 1484.99 763.563 1489.34 L 759.019 1490 C 718.016 1494.19 670.973 1499.15 630.115 1504.35 L 625.877 1504.82 C 592.164 1507.95 558.441 1512.74 524.729 1516.05 C 517.804 1516.73 510.621 1517.46 503.768 1518.51 C 499.709 1519.06 497.07 1519.26 492.974 1519.4 C 446.399 1524.92 400.391 1529.31 353.883 1534.37 C 351.238 1526.77 353.209 1416.35 353.133 1399 L 352.996 672.254 L 353.071 557.307 C 353.043 541.07 352.082 509.943 353.76 495.155 z" fill="rgb(11,13,16)" transform="translate(0,0)"></path>
<path d="M 590.523 923.203 C 590.745 920.846 590.81 918.3 591.214 916.012 C 595.021 894.423 616.392 897.43 633.002 897.819 C 633.98 897.842 634.677 900.04 634.904 900.641 L 635.543 902.238 C 622.746 903.868 609.606 898.252 598.699 911.74 C 595.032 916.273 594.196 920.537 592.588 925.936 C 592.022 928.937 591.693 930.576 590.892 933.483 C 590.135 930.007 589.507 926.729 590.523 923.203 z" fill="rgb(11,13,16)" transform="translate(0,0)"></path>
<path d="M 543.821 994.026 L 545.5 994.127 C 545.315 995.218 545.175 996.445 544.773 997.495 C 542.507 1003.41 545.025 1010.26 543.916 1015.97 C 545.249 1024.42 545.322 1027.81 550.249 1034.46 C 554.913 1034.94 562.127 1035.64 566.629 1036.46 C 573.689 1037.75 582.746 1037.13 589.149 1038.34 C 584.103 1039.09 579.264 1039.05 574.085 1039.48 C 531.552 1043 541.47 1024.75 541.889 996.227 C 542.542 995.167 542.851 994.984 543.821 994.026 z" fill="rgb(137,146,49)" transform="translate(0,0)"></path>
<path d="M 543.916 1015.97 C 545.249 1024.42 545.322 1027.81 550.249 1034.46 C 542.524 1034.75 540.412 1022.56 543.916 1015.97 z" fill="rgb(11,13,16)" transform="translate(0,0)"></path>
<path d="M 543.821 994.026 C 544.2 989.748 544.774 986.095 546.777 982.249 C 549.571 976.997 554.328 973.063 560.01 971.304 C 567.016 969.196 583.374 967.505 590.1 971.212 C 585.731 976.257 552.335 967.571 545.5 994.127 L 543.821 994.026 z" fill="rgb(11,13,16)" transform="translate(0,0)"></path>
<path d="M 634.861 884.976 C 635.459 891.023 634.97 895.947 635.543 902.238 L 634.904 900.641 C 634.677 900.04 633.98 897.842 633.002 897.819 C 616.392 897.43 595.021 894.423 591.214 916.012 C 590.81 918.3 590.745 920.846 590.523 923.203 C 589.507 926.729 590.135 930.007 590.892 933.483 C 590.965 935.688 590.808 935.602 589.051 936.936 L 588.346 936.746 C 586.715 912.629 588.961 897.573 615.231 894.655 C 620.241 895.012 628.432 895.295 633.431 894.635 C 634.452 894.5 634.684 886.323 634.861 884.976 z" fill="rgb(193,212,62)" transform="translate(0,0)"></path>
<path d="M 705.121 801.738 C 722.545 787.536 739.242 787.692 758.858 796.368 C 760.838 798.103 761.639 798.426 763.942 799.848 C 765.728 801.596 767.319 803.162 769.016 805.006 L 766.563 806.179 C 758.325 797.824 752.009 794.531 740.001 793.069 C 734.9 792.448 722.62 793.062 718.813 797.046 C 714.586 799.44 709.747 800.402 705.121 801.738 z" fill="rgb(193,212,62)" transform="translate(0,0)"></path>
<path d="M 589.652 962.025 C 590.725 964.855 589.955 968.019 590.1 971.212 C 583.374 967.505 567.016 969.196 560.01 971.304 C 554.328 973.063 549.571 976.997 546.777 982.249 C 544.774 986.095 544.2 989.748 543.821 994.026 C 542.851 994.984 542.542 995.167 541.889 996.227 C 543.805 964.292 562.984 967.94 588.579 966.484 C 589.082 966.455 589.62 962.219 589.652 962.025 z" fill="rgb(193,212,62)" transform="translate(0,0)"></path>
<path d="M 853.986 1040.14 C 861.084 1039.38 862.287 1037.61 865.505 1043.18 C 853.418 1044.14 824.63 1046.35 814.004 1042.95 C 820.944 1041.97 834.854 1041.93 842.403 1041.91 C 844.974 1041.13 846.761 1040.61 849.368 1040.05 C 851.046 1040.04 852.321 1040.06 853.986 1040.14 z" fill="rgb(193,212,62)" transform="translate(0,0)"></path>
<path d="M 849.368 1040.05 C 851.046 1040.04 852.321 1040.06 853.986 1040.14 C 852.685 1042.81 845.507 1041.92 842.403 1041.91 C 844.974 1041.13 846.761 1040.61 849.368 1040.05 z" fill="rgb(69,98,19)" transform="translate(0,0)"></path>
<path d="M 633.958 865.853 C 638.036 849.321 643.828 843.436 662.071 843.974 L 662.848 845.806 L 659.118 846.117 C 648.585 845.646 637.325 852.989 637.241 864.143 C 637.258 866.079 636.507 866.131 635.087 867.354 L 634.271 866.643 L 633.958 865.853 z" fill="rgb(193,212,62)" transform="translate(0,0)"></path>
<path d="M 585.72 1084.29 C 586.208 1086.08 586.602 1086.28 587.773 1087.84 C 586.806 1092.64 587.882 1095.84 590.495 1099.73 L 589.693 1101.29 C 584.483 1095.42 584.927 1092.37 585.214 1084.87 L 585.72 1084.29 z" fill="rgb(157,175,52)" transform="translate(0,0)"></path>
<path d="M 1819.07 135.615 C 1835.78 152.189 1853.03 168.263 1869.69 184.854 L 1644.63 412.508 C 1615.9 441.973 1583.93 472.4 1556.23 502.325 L 1550.55 507.731 L 1548.63 509.932 C 1539.38 519.154 1457.16 602.811 1454.92 603.322 L 1455.48 600.875 C 1451.45 598.988 1433.98 604.661 1429.32 590.598 C 1427.98 586.562 1428.04 582.579 1427.87 578.308 C 1428.01 578.109 1428.15 577.91 1428.29 577.711 C 1428.28 577.373 1428.33 577.547 1428.06 577.221 C 1426.69 576.768 1424.51 577.284 1423.14 577.456 C 1417.25 577.061 1416.14 576.323 1410.75 573.716 C 1406.68 567.312 1406.55 566.491 1405.7 558.761 C 1409.04 548.961 1413.56 545.65 1420.87 538.34 C 1421.25 532.017 1422.06 526.099 1422.66 519.848 C 1424.2 519.7 1425.36 519.745 1426.91 519.761 C 1431.03 520.024 1435.31 519.008 1438.75 520.291 C 1439.97 519.324 1444.83 513.872 1446.18 512.415 C 1454.5 505.484 1470.89 488.114 1478.87 480.011 L 1548.3 409.144 L 1819.07 135.615 z" fill="rgb(245,247,250)" transform="translate(0,0)"></path>
<path d="M 1422.66 519.848 C 1424.2 519.7 1425.36 519.745 1426.91 519.761 C 1427.13 524.181 1426.91 526.723 1428.29 530.873 C 1426.52 533.087 1423.04 536.237 1420.87 538.34 C 1421.25 532.017 1422.06 526.099 1422.66 519.848 z" fill="rgb(66,60,68)" transform="translate(0,0)"></path>
<path d="M 1426.91 519.761 C 1431.03 520.024 1435.31 519.008 1438.75 520.291 C 1435.42 524.072 1431.96 527.436 1428.29 530.873 C 1426.91 526.723 1427.13 524.181 1426.91 519.761 z" fill="rgb(11,13,16)" transform="translate(0,0)"></path>
<path d="M 1724.89 587.5 L 1756.56 586.972 C 1758.37 686.757 1756.86 790.951 1756.86 891.182 L 1756.89 1454.86 L 1731.62 1454.86 C 1720.39 1454.85 1709.17 1454.61 1697.95 1454.13 L 1698 587.696 C 1706.79 587.81 1716.06 587.577 1724.89 587.5 z" fill="rgb(11,13,16)" transform="translate(0,0)"></path>
<path d="M 450.549 1662.42 C 455.225 1661.98 462.573 1662 467.25 1662.06 C 525.069 1662.77 584.913 1684.28 630.809 1719.33 C 647.407 1732.01 663.277 1748.31 677.757 1763.33 C 665.715 1775.9 651.9 1788.48 639.49 1801.07 C 609.587 1831.98 579.297 1862.52 548.628 1892.67 C 544.239 1884.33 537.367 1876.2 530.337 1869.95 C 510.647 1852.23 484.624 1843.25 458.199 1845.03 C 431.667 1846.81 409.407 1859.31 392.046 1879.04 C 375.314 1900.7 371.041 1919.37 371.059 1946.61 C 308.922 1946.02 245.916 1947.46 184.104 1946.39 C 192.531 1795.35 294.066 1672.47 450.549 1662.42 z" fill="rgb(245,247,250)" transform="translate(0,0)"></path>
<path d="M 1393.98 1676.46 C 1441.72 1671.3 1484.65 1705.7 1490.02 1753.41 C 1495.4 1801.13 1461.19 1844.22 1413.5 1849.8 C 1365.51 1855.42 1322.09 1820.95 1316.68 1772.94 C 1311.27 1724.92 1345.94 1681.66 1393.98 1676.46 z" fill="rgb(245,247,250)" transform="translate(0,0)"></path>
<metadata><recraft-signature>{"signed_by": "recraft", "signature_b64": "hf+DvQ3AG87Fo3fSi2sey8ddQfOfvdzIHMJixPo5ROTiL6MpbR3L6xngQpVTVw2sBOfPU/59RbrmRFpPbm7uAA==", "signing_algo": "Ed25519", "generation_timestamp": 1783315377, "identifier": "470a0b9b-7a97-4ddc-9722-38ae9bc2aef3"}</recraft-signature></metadata></svg>